<svg xmlns="http://www.w3.org/2000/svg" xmlns:xlink="http://www.w3.org/1999/xlink" width="260" zoomAndPan="magnify" viewBox="0 0 194.87999 44.999999" height="60" preserveAspectRatio="xMidYMid meet" version="1.0"><defs><g/><clipPath id="2dc0cb8fee"><path d="M 0 0.015625 L 194.761719 0.015625 L 194.761719 44.984375 L 0 44.984375 Z M 0 0.015625 " clip-rule="nonzero"/></clipPath><clipPath id="cf3897de4c"><path d="M 4.5 4.183594 L 40 4.183594 L 40 40 L 4.5 40 Z M 4.5 4.183594 " clip-rule="nonzero"/></clipPath><clipPath id="e7baeca403"><rect x="0" width="148" y="0" height="31"/></clipPath></defs><g clip-path="url(#2dc0cb8fee)"><path fill="none" /><path fill="none" /></g><g clip-path="url(#cf3897de4c)"><path fill="currentColor" d="M 11.613281 33.742188 L 12.019531 34.140625 L 12.058594 34.183594 C 13.316406 35.484375 13.300781 37.578125 12.019531 38.863281 C 10.734375 40.144531 8.640625 40.160156 7.339844 38.902344 L 7.296875 38.863281 L 6.894531 38.464844 L 5.792969 37.359375 C 4.5 36.0625 4.5 33.941406 5.792969 32.640625 C 7.089844 31.34375 9.21875 31.34375 10.515625 32.640625 Z M 33.878906 15.480469 L 38.832031 10.527344 C 40.128906 9.230469 40.128906 7.109375 38.832031 5.808594 C 37.53125 4.511719 35.40625 4.511719 34.113281 5.808594 L 29.996094 9.921875 L 26.796875 13.121094 C 25.5 14.417969 25.5 16.539062 26.796875 17.839844 L 29.15625 20.203125 L 29.578125 20.617188 L 34.144531 25.183594 C 35.441406 26.480469 37.5625 26.480469 38.863281 25.183594 C 40.160156 23.886719 40.160156 21.757812 38.863281 20.460938 L 34.300781 15.898438 Z M 5.984375 5.839844 L 5.984375 5.835938 C 7.28125 4.539062 9.40625 4.539062 10.703125 5.835938 L 38.800781 33.9375 C 40.101562 35.234375 40.101562 37.359375 38.800781 38.65625 C 37.503906 39.953125 35.382812 39.953125 34.078125 38.65625 L 5.984375 10.554688 C 4.6875 9.257812 4.6875 7.136719 5.984375 5.839844 Z M 5.941406 19.289062 C 7.238281 17.992188 9.363281 17.992188 10.664062 19.289062 L 13.863281 22.488281 L 20.785156 29.414062 L 25.347656 33.976562 C 26.644531 35.273438 26.644531 37.398438 25.347656 38.695312 C 24.046875 39.992188 21.925781 39.992188 20.628906 38.695312 L 16.066406 34.132812 L 9.140625 27.210938 L 5.941406 24.011719 C 4.644531 22.714844 4.644531 20.585938 5.941406 19.289062 Z M 5.941406 19.289062 " fill-opacity="1" fill-rule="evenodd"/></g><g transform="matrix(1, 0, 0, 1, 44, 7)"><g clip-path="url(#e7baeca403)"><g fill="currentColor" fill-opacity="1"><g transform="translate(1.173193, 22.543536)"><g><path d="M 5.359375 0 L 5.359375 -14.234375 L 0.65625 -14.234375 L 0.65625 -15.78125 L 11.96875 -15.78125 L 11.96875 -14.234375 L 7.265625 -14.234375 L 7.265625 0 Z M 5.359375 0 "/></g></g></g><g fill="currentColor" fill-opacity="1"><g transform="translate(17.292855, 22.543536)"><g><path d="M 1.671875 0 L 1.671875 -15.78125 L 11.4375 -15.78125 L 11.4375 -14.234375 L 3.5625 -14.234375 L 3.5625 -8.71875 L 10.75 -8.71875 L 10.75 -7.1875 L 3.5625 -7.1875 L 3.5625 -1.5625 L 11.4375 -1.5625 L 11.4375 0 Z M 1.671875 0 "/></g></g></g><g fill="currentColor" fill-opacity="1"><g transform="translate(33.502689, 22.543536)"><g><path d="M 8.59375 0.265625 C 7.039062 0.265625 5.703125 -0.0703125 4.578125 -0.75 C 3.460938 -1.4375 2.597656 -2.390625 1.984375 -3.609375 C 1.367188 -4.835938 1.0625 -6.265625 1.0625 -7.890625 C 1.0625 -9.492188 1.367188 -10.910156 1.984375 -12.140625 C 2.597656 -13.367188 3.460938 -14.328125 4.578125 -15.015625 C 5.703125 -15.703125 7.039062 -16.046875 8.59375 -16.046875 C 10.394531 -16.046875 11.863281 -15.613281 13 -14.75 C 14.132812 -13.882812 14.859375 -12.679688 15.171875 -11.140625 L 13.078125 -11.140625 C 12.835938 -12.117188 12.34375 -12.90625 11.59375 -13.5 C 10.851562 -14.09375 9.851562 -14.390625 8.59375 -14.390625 C 7.46875 -14.390625 6.484375 -14.128906 5.640625 -13.609375 C 4.796875 -13.085938 4.144531 -12.34375 3.6875 -11.375 C 3.226562 -10.40625 3 -9.242188 3 -7.890625 C 3 -6.535156 3.226562 -5.375 3.6875 -4.40625 C 4.144531 -3.4375 4.796875 -2.691406 5.640625 -2.171875 C 6.484375 -1.648438 7.46875 -1.390625 8.59375 -1.390625 C 9.851562 -1.390625 10.851562 -1.679688 11.59375 -2.265625 C 12.34375 -2.847656 12.835938 -3.617188 13.078125 -4.578125 L 15.171875 -4.578125 C 14.859375 -3.054688 14.132812 -1.867188 13 -1.015625 C 11.863281 -0.160156 10.394531 0.265625 8.59375 0.265625 Z M 8.59375 0.265625 "/></g></g></g><g fill="currentColor" fill-opacity="1"><g transform="translate(53.229388, 22.543536)"><g><path d="M 1.671875 0 L 1.671875 -15.78125 L 3.5625 -15.78125 L 3.5625 -8.8125 L 11.75 -8.8125 L 11.75 -15.78125 L 13.640625 -15.78125 L 13.640625 0 L 11.75 0 L 11.75 -7.265625 L 3.5625 -7.265625 L 3.5625 0 Z M 1.671875 0 "/></g></g></g><g fill="currentColor" fill-opacity="1"><g transform="translate(72.031787, 22.543536)"><g><path d="M 0.671875 0 L 6.5 -15.78125 L 8.5 -15.78125 L 14.296875 0 L 12.28125 0 L 10.84375 -4.0625 L 4.125 -4.0625 L 2.65625 0 Z M 4.6875 -5.59375 L 10.28125 -5.59375 L 7.484375 -13.390625 Z M 4.6875 -5.59375 "/></g></g></g><g fill="currentColor" fill-opacity="1"><g transform="translate(90.496021, 22.543536)"><g><path d="M 6.421875 0 L 0.5 -15.78125 L 2.546875 -15.78125 L 7.53125 -2 L 12.5625 -15.78125 L 14.5625 -15.78125 L 8.640625 0 Z M 6.421875 0 "/></g></g></g><g fill="currentColor" fill-opacity="1"><g transform="translate(109.050434, 22.543536)"><g><path d="M 8.84375 0.265625 C 7.289062 0.265625 5.929688 -0.0703125 4.765625 -0.75 C 3.597656 -1.4375 2.6875 -2.394531 2.03125 -3.625 C 1.382812 -4.863281 1.0625 -6.285156 1.0625 -7.890625 C 1.0625 -9.492188 1.382812 -10.910156 2.03125 -12.140625 C 2.6875 -13.367188 3.597656 -14.328125 4.765625 -15.015625 C 5.929688 -15.703125 7.289062 -16.046875 8.84375 -16.046875 C 10.40625 -16.046875 11.765625 -15.703125 12.921875 -15.015625 C 14.085938 -14.328125 14.992188 -13.367188 15.640625 -12.140625 C 16.285156 -10.910156 16.609375 -9.492188 16.609375 -7.890625 C 16.609375 -6.285156 16.285156 -4.863281 15.640625 -3.625 C 14.992188 -2.394531 14.085938 -1.4375 12.921875 -0.75 C 11.765625 -0.0703125 10.40625 0.265625 8.84375 0.265625 Z M 8.84375 -1.390625 C 10 -1.390625 11.015625 -1.648438 11.890625 -2.171875 C 12.773438 -2.691406 13.457031 -3.4375 13.9375 -4.40625 C 14.425781 -5.375 14.671875 -6.535156 14.671875 -7.890625 C 14.671875 -9.242188 14.425781 -10.398438 13.9375 -11.359375 C 13.457031 -12.328125 12.773438 -13.066406 11.890625 -13.578125 C 11.015625 -14.097656 10 -14.359375 8.84375 -14.359375 C 7.6875 -14.359375 6.664062 -14.097656 5.78125 -13.578125 C 4.90625 -13.066406 4.222656 -12.328125 3.734375 -11.359375 C 3.242188 -10.398438 3 -9.242188 3 -7.890625 C 3 -6.535156 3.242188 -5.375 3.734375 -4.40625 C 4.222656 -3.4375 4.90625 -2.691406 5.78125 -2.171875 C 6.664062 -1.648438 7.6875 -1.390625 8.84375 -1.390625 Z M 8.84375 -1.390625 "/></g></g></g><g fill="currentColor" fill-opacity="1"><g transform="translate(130.219949, 22.543536)"><g><path d="M 1.671875 0 L 1.671875 -15.78125 L 6.765625 -15.78125 C 7.992188 -15.78125 9 -15.578125 9.78125 -15.171875 C 10.5625 -14.765625 11.140625 -14.207031 11.515625 -13.5 C 11.890625 -12.800781 12.078125 -12.019531 12.078125 -11.15625 C 12.078125 -10.164062 11.8125 -9.269531 11.28125 -8.46875 C 10.75 -7.675781 9.921875 -7.113281 8.796875 -6.78125 L 12.25 0 L 10.015625 0 L 6.8125 -6.515625 L 3.5625 -6.515625 L 3.5625 0 Z M 3.5625 -8 L 6.625 -8 C 7.84375 -8 8.726562 -8.289062 9.28125 -8.875 C 9.84375 -9.46875 10.125 -10.222656 10.125 -11.140625 C 10.125 -12.066406 9.847656 -12.804688 9.296875 -13.359375 C 8.753906 -13.910156 7.859375 -14.1875 6.609375 -14.1875 L 3.5625 -14.1875 Z M 3.5625 -8 "/></g></g></g></g></g></svg>