<svg xmlns="http://www.w3.org/2000/svg" xmlns:xlink="http://www.w3.org/1999/xlink" width="260" zoomAndPan="magnify" viewBox="0 0 194.87999 44.999999" height="60" preserveAspectRatio="xMidYMid meet" version="1.0"><defs><g/><clipPath id="f9d76371fd"><rect x="0" width="169" y="0" height="28"/></clipPath><clipPath id="5130770c0b"><path d="M 0.078125 1 L 6 1 L 6 7 L 0.078125 7 Z M 0.078125 1 " clip-rule="nonzero"/></clipPath><clipPath id="5e05fc3620"><rect x="0" width="62" y="0" height="8"/></clipPath><clipPath id="2538fa3379"><path d="M 121.394531 14.257812 L 137.878906 14.257812 L 137.878906 30.742188 L 121.394531 30.742188 Z M 121.394531 14.257812 " clip-rule="nonzero"/></clipPath><clipPath id="0e6573aa33"><path d="M 129.636719 14.257812 C 125.085938 14.257812 121.394531 17.949219 121.394531 22.5 C 121.394531 27.050781 125.085938 30.742188 129.636719 30.742188 C 134.1875 30.742188 137.878906 27.050781 137.878906 22.5 C 137.878906 17.949219 134.1875 14.257812 129.636719 14.257812 Z M 129.636719 14.257812 " clip-rule="nonzero"/></clipPath><clipPath id="17bf36b365"><path d="M 0.394531 0.257812 L 16.878906 0.257812 L 16.878906 16.742188 L 0.394531 16.742188 Z M 0.394531 0.257812 " clip-rule="nonzero"/></clipPath><clipPath id="c7cc6ca664"><path d="M 8.636719 0.257812 C 4.085938 0.257812 0.394531 3.949219 0.394531 8.5 C 0.394531 13.050781 4.085938 16.742188 8.636719 16.742188 C 13.1875 16.742188 16.878906 13.050781 16.878906 8.5 C 16.878906 3.949219 13.1875 0.257812 8.636719 0.257812 Z M 8.636719 0.257812 " clip-rule="nonzero"/></clipPath><clipPath id="0254a9baef"><rect x="0" width="17" y="0" height="17"/></clipPath><clipPath id="4047862e11"><path d="M 117.320312 14.257812 L 133.804688 14.257812 L 133.804688 30.742188 L 117.320312 30.742188 Z M 117.320312 14.257812 " clip-rule="nonzero"/></clipPath><clipPath id="e4751e39dd"><path d="M 125.5625 14.257812 C 121.011719 14.257812 117.320312 17.949219 117.320312 22.5 C 117.320312 27.050781 121.011719 30.742188 125.5625 30.742188 C 130.113281 30.742188 133.804688 27.050781 133.804688 22.5 C 133.804688 17.949219 130.113281 14.257812 125.5625 14.257812 Z M 125.5625 14.257812 " clip-rule="nonzero"/></clipPath><clipPath id="5b78c63968"><path d="M 0.320312 0.257812 L 16.804688 0.257812 L 16.804688 16.742188 L 0.320312 16.742188 Z M 0.320312 0.257812 " clip-rule="nonzero"/></clipPath><clipPath id="a786d12872"><path d="M 8.5625 0.257812 C 4.011719 0.257812 0.320312 3.949219 0.320312 8.5 C 0.320312 13.050781 4.011719 16.742188 8.5625 16.742188 C 13.113281 16.742188 16.804688 13.050781 16.804688 8.5 C 16.804688 3.949219 13.113281 0.257812 8.5625 0.257812 Z M 8.5625 0.257812 " clip-rule="nonzero"/></clipPath><clipPath id="dcce70f40b"><rect x="0" width="17" y="0" height="17"/></clipPath><clipPath id="1de9b03b2b"><path d="M 113.15625 14.257812 L 129.636719 14.257812 L 129.636719 30.742188 L 113.15625 30.742188 Z M 113.15625 14.257812 " clip-rule="nonzero"/></clipPath><clipPath id="885e5b201f"><path d="M 121.394531 14.257812 C 116.84375 14.257812 113.15625 17.949219 113.15625 22.5 C 113.15625 27.050781 116.84375 30.742188 121.394531 30.742188 C 125.949219 30.742188 129.636719 27.050781 129.636719 22.5 C 129.636719 17.949219 125.949219 14.257812 121.394531 14.257812 Z M 121.394531 14.257812 " clip-rule="nonzero"/></clipPath><clipPath id="84840eb4b2"><path d="M 0.15625 0.257812 L 16.636719 0.257812 L 16.636719 16.742188 L 0.15625 16.742188 Z M 0.15625 0.257812 " clip-rule="nonzero"/></clipPath><clipPath id="562b225b17"><path d="M 8.394531 0.257812 C 3.84375 0.257812 0.15625 3.949219 0.15625 8.5 C 0.15625 13.050781 3.84375 16.742188 8.394531 16.742188 C 12.949219 16.742188 16.636719 13.050781 16.636719 8.5 C 16.636719 3.949219 12.949219 0.257812 8.394531 0.257812 Z M 8.394531 0.257812 " clip-rule="nonzero"/></clipPath><clipPath id="981e007440"><rect x="0" width="17" y="0" height="17"/></clipPath></defs><g transform="matrix(1, 0, 0, 1, 13, 8)"><g clip-path="url(#f9d76371fd)"><g fill="#000000" fill-opacity="1"><g transform="translate(0.588655, 21.853117)"><g><path d="M 11.375 0.390625 C 10.21875 0.390625 9.125 0.21875 8.09375 -0.125 C 7.070312 -0.46875 6.140625 -0.945312 5.296875 -1.5625 C 4.453125 -2.1875 3.71875 -2.921875 3.09375 -3.765625 C 2.476562 -4.617188 2.003906 -5.554688 1.671875 -6.578125 C 1.335938 -7.597656 1.171875 -8.671875 1.171875 -9.796875 C 1.171875 -10.941406 1.335938 -12.023438 1.671875 -13.046875 C 2.003906 -14.066406 2.476562 -15 3.09375 -15.84375 C 3.71875 -16.695312 4.453125 -17.429688 5.296875 -18.046875 C 6.140625 -18.671875 7.070312 -19.15625 8.09375 -19.5 C 9.125 -19.84375 10.21875 -20.015625 11.375 -20.015625 C 12.40625 -20.015625 13.414062 -19.867188 14.40625 -19.578125 C 15.394531 -19.285156 16.304688 -18.84375 17.140625 -18.25 C 17.984375 -17.65625 18.703125 -16.914062 19.296875 -16.03125 C 19.890625 -15.144531 20.304688 -14.109375 20.546875 -12.921875 L 17.953125 -12.921875 C 17.648438 -13.984375 17.175781 -14.863281 16.53125 -15.5625 C 15.894531 -16.257812 15.128906 -16.785156 14.234375 -17.140625 C 13.335938 -17.492188 12.359375 -17.671875 11.296875 -17.671875 C 10.234375 -17.671875 9.238281 -17.476562 8.3125 -17.09375 C 7.394531 -16.707031 6.59375 -16.160156 5.90625 -15.453125 C 5.21875 -14.742188 4.679688 -13.910156 4.296875 -12.953125 C 3.910156 -12.003906 3.71875 -10.953125 3.71875 -9.796875 C 3.71875 -8.648438 3.910156 -7.597656 4.296875 -6.640625 C 4.679688 -5.679688 5.21875 -4.851562 5.90625 -4.15625 C 6.59375 -3.457031 7.394531 -2.914062 8.3125 -2.53125 C 9.238281 -2.15625 10.234375 -1.96875 11.296875 -1.96875 C 12.359375 -1.96875 13.332031 -2.140625 14.21875 -2.484375 C 15.113281 -2.835938 15.882812 -3.363281 16.53125 -4.0625 C 17.175781 -4.769531 17.644531 -5.644531 17.9375 -6.6875 L 20.546875 -6.6875 C 20.304688 -5.507812 19.890625 -4.476562 19.296875 -3.59375 C 18.703125 -2.707031 17.988281 -1.96875 17.15625 -1.375 C 16.320312 -0.78125 15.410156 -0.335938 14.421875 -0.046875 C 13.429688 0.242188 12.414062 0.390625 11.375 0.390625 Z M 11.375 0.390625 "/></g></g></g><g fill="#000000" fill-opacity="1"><g transform="translate(20.598568, 21.853117)"><g><path d="M 3.15625 5.015625 L 0.734375 5.015625 L 0.734375 2.921875 L 3.171875 2.921875 C 3.765625 2.921875 4.242188 2.816406 4.609375 2.609375 C 4.972656 2.398438 5.28125 2.078125 5.53125 1.640625 C 5.789062 1.203125 6.046875 0.648438 6.296875 -0.015625 L 6.453125 -0.4375 L 0.625 -14.6875 L 3.25 -14.6875 L 7.421875 -4.296875 L 7.765625 -3.015625 L 8.140625 -4.296875 L 12.265625 -14.671875 L 14.90625 -14.6875 L 9.109375 -0.40625 C 8.703125 0.632812 8.304688 1.5 7.921875 2.1875 C 7.546875 2.882812 7.140625 3.441406 6.703125 3.859375 C 6.273438 4.273438 5.773438 4.570312 5.203125 4.75 C 4.628906 4.925781 3.945312 5.015625 3.15625 5.015625 Z M 3.15625 5.015625 "/></g></g></g><g fill="#000000" fill-opacity="1"><g transform="translate(33.973024, 21.853117)"><g><path d="M 10.4375 0.421875 C 9.632812 0.421875 8.863281 0.273438 8.125 -0.015625 C 7.394531 -0.304688 6.738281 -0.710938 6.15625 -1.234375 C 5.570312 -1.765625 5.101562 -2.394531 4.75 -3.125 L 4.75 0 L 2.375 0 L 2.375 -20.265625 L 4.859375 -20.265625 L 4.859375 -13.609375 L 4.8125 -11.59375 C 5.132812 -12.25 5.570312 -12.84375 6.125 -13.375 C 6.675781 -13.90625 7.316406 -14.320312 8.046875 -14.625 C 8.773438 -14.9375 9.5625 -15.09375 10.40625 -15.09375 C 11.445312 -15.09375 12.40625 -14.890625 13.28125 -14.484375 C 14.15625 -14.085938 14.921875 -13.535156 15.578125 -12.828125 C 16.242188 -12.117188 16.753906 -11.296875 17.109375 -10.359375 C 17.472656 -9.421875 17.65625 -8.414062 17.65625 -7.34375 C 17.65625 -6.269531 17.472656 -5.257812 17.109375 -4.3125 C 16.742188 -3.375 16.234375 -2.550781 15.578125 -1.84375 C 14.921875 -1.132812 14.15625 -0.578125 13.28125 -0.171875 C 12.414062 0.222656 11.46875 0.421875 10.4375 0.421875 Z M 10 -1.890625 C 10.71875 -1.890625 11.382812 -2.019531 12 -2.28125 C 12.625 -2.539062 13.175781 -2.910156 13.65625 -3.390625 C 14.132812 -3.878906 14.507812 -4.457031 14.78125 -5.125 C 15.050781 -5.800781 15.1875 -6.539062 15.1875 -7.34375 C 15.1875 -8.132812 15.050781 -8.863281 14.78125 -9.53125 C 14.507812 -10.195312 14.132812 -10.769531 13.65625 -11.25 C 13.1875 -11.738281 12.640625 -12.113281 12.015625 -12.375 C 11.390625 -12.644531 10.71875 -12.78125 10 -12.78125 C 9.28125 -12.78125 8.609375 -12.640625 7.984375 -12.359375 C 7.359375 -12.085938 6.8125 -11.703125 6.34375 -11.203125 C 5.875 -10.703125 5.503906 -10.125 5.234375 -9.46875 C 4.972656 -8.8125 4.84375 -8.101562 4.84375 -7.34375 C 4.84375 -6.5625 4.972656 -5.835938 5.234375 -5.171875 C 5.503906 -4.503906 5.878906 -3.925781 6.359375 -3.4375 C 6.835938 -2.945312 7.390625 -2.566406 8.015625 -2.296875 C 8.640625 -2.023438 9.300781 -1.890625 10 -1.890625 Z M 10 -1.890625 "/></g></g></g><g fill="#000000" fill-opacity="1"><g transform="translate(51.392085, 21.853117)"><g><path d="M 15.859375 -7.703125 C 15.859375 -7.578125 15.851562 -7.441406 15.84375 -7.296875 C 15.84375 -7.160156 15.835938 -6.957031 15.828125 -6.6875 L 3.640625 -6.6875 C 3.742188 -5.707031 4.03125 -4.859375 4.5 -4.140625 C 4.976562 -3.421875 5.570312 -2.867188 6.28125 -2.484375 C 6.988281 -2.097656 7.742188 -1.90625 8.546875 -1.90625 C 9.535156 -1.90625 10.378906 -2.117188 11.078125 -2.546875 C 11.785156 -2.972656 12.300781 -3.597656 12.625 -4.421875 L 15.40625 -4.421875 C 15.195312 -3.742188 14.878906 -3.113281 14.453125 -2.53125 C 14.035156 -1.945312 13.53125 -1.4375 12.9375 -1 C 12.351562 -0.5625 11.691406 -0.21875 10.953125 0.03125 C 10.222656 0.28125 9.441406 0.40625 8.609375 0.40625 C 7.546875 0.40625 6.5625 0.207031 5.65625 -0.1875 C 4.75 -0.59375 3.957031 -1.148438 3.28125 -1.859375 C 2.601562 -2.566406 2.078125 -3.390625 1.703125 -4.328125 C 1.328125 -5.265625 1.140625 -6.269531 1.140625 -7.34375 C 1.140625 -8.414062 1.328125 -9.421875 1.703125 -10.359375 C 2.078125 -11.296875 2.601562 -12.117188 3.28125 -12.828125 C 3.957031 -13.535156 4.75 -14.09375 5.65625 -14.5 C 6.5625 -14.90625 7.546875 -15.109375 8.609375 -15.109375 C 9.660156 -15.109375 10.628906 -14.910156 11.515625 -14.515625 C 12.410156 -14.117188 13.179688 -13.570312 13.828125 -12.875 C 14.472656 -12.1875 14.972656 -11.398438 15.328125 -10.515625 C 15.679688 -9.628906 15.859375 -8.691406 15.859375 -7.703125 Z M 3.75 -8.875 L 13.328125 -8.875 C 13.296875 -9.394531 13.144531 -9.890625 12.875 -10.359375 C 12.613281 -10.835938 12.265625 -11.253906 11.828125 -11.609375 C 11.398438 -11.972656 10.90625 -12.253906 10.34375 -12.453125 C 9.78125 -12.660156 9.1875 -12.765625 8.5625 -12.765625 C 7.832031 -12.765625 7.132812 -12.613281 6.46875 -12.3125 C 5.8125 -12.019531 5.242188 -11.585938 4.765625 -11.015625 C 4.285156 -10.441406 3.945312 -9.726562 3.75 -8.875 Z M 3.75 -8.875 "/></g></g></g><g fill="#000000" fill-opacity="1"><g transform="translate(66.450595, 21.853117)"><g><path d="M 4.859375 0 L 2.375 0 L 2.375 -14.6875 L 4.765625 -14.6875 L 4.765625 -11.40625 C 5.128906 -12.414062 5.695312 -13.210938 6.46875 -13.796875 C 7.238281 -14.390625 8.160156 -14.6875 9.234375 -14.6875 L 10.65625 -14.6875 L 10.65625 -12.515625 L 9.359375 -12.515625 C 8.503906 -12.515625 7.734375 -12.289062 7.046875 -11.84375 C 6.367188 -11.40625 5.832031 -10.769531 5.4375 -9.9375 C 5.050781 -9.101562 4.859375 -8.09375 4.859375 -6.90625 Z M 4.859375 0 "/></g></g></g><g fill="#000000" fill-opacity="1"><g transform="translate(75.909988, 21.853117)"><g><path d="M 3.59375 -17.546875 C 3.09375 -17.546875 2.6875 -17.695312 2.375 -18 C 2.070312 -18.3125 1.921875 -18.691406 1.921875 -19.140625 C 1.921875 -19.566406 2.070312 -19.929688 2.375 -20.234375 C 2.6875 -20.546875 3.097656 -20.703125 3.609375 -20.703125 C 4.140625 -20.703125 4.554688 -20.546875 4.859375 -20.234375 C 5.160156 -19.929688 5.3125 -19.566406 5.3125 -19.140625 C 5.3125 -18.691406 5.160156 -18.3125 4.859375 -18 C 4.554688 -17.695312 4.132812 -17.546875 3.59375 -17.546875 Z M 4.859375 0 L 2.375 0 L 2.375 -14.6875 L 4.859375 -14.6875 Z M 4.859375 0 "/></g></g></g><g fill="#000000" fill-opacity="1"><g transform="translate(81.425531, 21.853117)"><g><path d="M 8.765625 0.421875 C 7.679688 0.421875 6.675781 0.222656 5.75 -0.171875 C 4.820312 -0.578125 4.015625 -1.132812 3.328125 -1.84375 C 2.640625 -2.550781 2.101562 -3.375 1.71875 -4.3125 C 1.332031 -5.257812 1.140625 -6.269531 1.140625 -7.34375 C 1.140625 -8.414062 1.332031 -9.421875 1.71875 -10.359375 C 2.101562 -11.296875 2.632812 -12.117188 3.3125 -12.828125 C 4 -13.535156 4.804688 -14.09375 5.734375 -14.5 C 6.660156 -14.90625 7.671875 -15.109375 8.765625 -15.109375 C 9.859375 -15.109375 10.867188 -14.90625 11.796875 -14.5 C 12.734375 -14.101562 13.546875 -13.550781 14.234375 -12.84375 C 14.929688 -12.132812 15.46875 -11.304688 15.84375 -10.359375 C 16.226562 -9.421875 16.421875 -8.414062 16.421875 -7.34375 C 16.421875 -6.269531 16.226562 -5.257812 15.84375 -4.3125 C 15.46875 -3.375 14.929688 -2.550781 14.234375 -1.84375 C 13.546875 -1.132812 12.734375 -0.578125 11.796875 -0.171875 C 10.867188 0.222656 9.859375 0.421875 8.765625 0.421875 Z M 8.796875 -1.921875 C 9.523438 -1.921875 10.203125 -2.050781 10.828125 -2.3125 C 11.453125 -2.582031 12 -2.960938 12.46875 -3.453125 C 12.9375 -3.941406 13.300781 -4.515625 13.5625 -5.171875 C 13.820312 -5.835938 13.953125 -6.5625 13.953125 -7.34375 C 13.953125 -8.125 13.820312 -8.84375 13.5625 -9.5 C 13.300781 -10.15625 12.9375 -10.726562 12.46875 -11.21875 C 12 -11.707031 11.453125 -12.085938 10.828125 -12.359375 C 10.203125 -12.628906 9.523438 -12.765625 8.796875 -12.765625 C 8.066406 -12.765625 7.382812 -12.628906 6.75 -12.359375 C 6.125 -12.085938 5.578125 -11.707031 5.109375 -11.21875 C 4.640625 -10.726562 4.269531 -10.15625 4 -9.5 C 3.738281 -8.84375 3.609375 -8.125 3.609375 -7.34375 C 3.609375 -6.5625 3.738281 -5.835938 4 -5.171875 C 4.269531 -4.515625 4.640625 -3.941406 5.109375 -3.453125 C 5.578125 -2.960938 6.125 -2.582031 6.75 -2.3125 C 7.382812 -2.050781 8.066406 -1.921875 8.796875 -1.921875 Z M 8.796875 -1.921875 "/></g></g></g><g fill="#000000" fill-opacity="1"><g transform="translate(97.278863, 21.853117)"><g/></g></g><g fill="#000000" fill-opacity="1"><g transform="translate(102.85198, 21.853117)"><g/></g></g><g fill="#000000" fill-opacity="1"><g transform="translate(108.425098, 21.853117)"><g/></g></g><g fill="#000000" fill-opacity="1"><g transform="translate(119.571333, 21.853117)"><g/></g></g><g fill="#000000" fill-opacity="1"><g transform="translate(125.148489, 21.853117)"><g><path d="M 20.3125 -15.109375 C 22.132812 -15.109375 23.519531 -14.503906 24.46875 -13.296875 C 25.414062 -12.085938 25.890625 -10.3125 25.890625 -7.96875 L 25.890625 0 L 23.421875 0 L 23.421875 -7.921875 C 23.421875 -9.609375 23.082031 -10.835938 22.40625 -11.609375 C 21.738281 -12.390625 20.816406 -12.78125 19.640625 -12.78125 C 19.078125 -12.78125 18.539062 -12.65625 18.03125 -12.40625 C 17.519531 -12.164062 17.0625 -11.820312 16.65625 -11.375 C 16.25 -10.925781 15.925781 -10.390625 15.6875 -9.765625 C 15.457031 -9.148438 15.34375 -8.46875 15.34375 -7.71875 L 15.34375 0 L 12.90625 0 L 12.90625 -7.921875 C 12.90625 -9.609375 12.566406 -10.835938 11.890625 -11.609375 C 11.222656 -12.390625 10.300781 -12.78125 9.125 -12.78125 C 8.570312 -12.78125 8.035156 -12.65625 7.515625 -12.40625 C 6.992188 -12.164062 6.53125 -11.820312 6.125 -11.375 C 5.726562 -10.925781 5.410156 -10.390625 5.171875 -9.765625 C 4.941406 -9.148438 4.828125 -8.46875 4.828125 -7.71875 L 4.828125 0 L 2.375 0 L 2.375 -14.6875 L 4.703125 -14.6875 L 4.734375 -11.84375 C 4.984375 -12.457031 5.351562 -13.007812 5.84375 -13.5 C 6.34375 -13.988281 6.925781 -14.378906 7.59375 -14.671875 C 8.269531 -14.960938 9.003906 -15.109375 9.796875 -15.109375 C 12.441406 -15.109375 14.148438 -13.847656 14.921875 -11.328125 C 15.484375 -12.585938 16.238281 -13.53125 17.1875 -14.15625 C 18.132812 -14.789062 19.175781 -15.109375 20.3125 -15.109375 Z M 20.3125 -15.109375 "/></g></g></g><g fill="#000000" fill-opacity="1"><g transform="translate(151.520379, 21.853117)"><g><path d="M 15.859375 -7.703125 C 15.859375 -7.578125 15.851562 -7.441406 15.84375 -7.296875 C 15.84375 -7.160156 15.835938 -6.957031 15.828125 -6.6875 L 3.640625 -6.6875 C 3.742188 -5.707031 4.03125 -4.859375 4.5 -4.140625 C 4.976562 -3.421875 5.570312 -2.867188 6.28125 -2.484375 C 6.988281 -2.097656 7.742188 -1.90625 8.546875 -1.90625 C 9.535156 -1.90625 10.378906 -2.117188 11.078125 -2.546875 C 11.785156 -2.972656 12.300781 -3.597656 12.625 -4.421875 L 15.40625 -4.421875 C 15.195312 -3.742188 14.878906 -3.113281 14.453125 -2.53125 C 14.035156 -1.945312 13.53125 -1.4375 12.9375 -1 C 12.351562 -0.5625 11.691406 -0.21875 10.953125 0.03125 C 10.222656 0.28125 9.441406 0.40625 8.609375 0.40625 C 7.546875 0.40625 6.5625 0.207031 5.65625 -0.1875 C 4.75 -0.59375 3.957031 -1.148438 3.28125 -1.859375 C 2.601562 -2.566406 2.078125 -3.390625 1.703125 -4.328125 C 1.328125 -5.265625 1.140625 -6.269531 1.140625 -7.34375 C 1.140625 -8.414062 1.328125 -9.421875 1.703125 -10.359375 C 2.078125 -11.296875 2.601562 -12.117188 3.28125 -12.828125 C 3.957031 -13.535156 4.75 -14.09375 5.65625 -14.5 C 6.5625 -14.90625 7.546875 -15.109375 8.609375 -15.109375 C 9.660156 -15.109375 10.628906 -14.910156 11.515625 -14.515625 C 12.410156 -14.117188 13.179688 -13.570312 13.828125 -12.875 C 14.472656 -12.1875 14.972656 -11.398438 15.328125 -10.515625 C 15.679688 -9.628906 15.859375 -8.691406 15.859375 -7.703125 Z M 3.75 -8.875 L 13.328125 -8.875 C 13.296875 -9.394531 13.144531 -9.890625 12.875 -10.359375 C 12.613281 -10.835938 12.265625 -11.253906 11.828125 -11.609375 C 11.398438 -11.972656 10.90625 -12.253906 10.34375 -12.453125 C 9.78125 -12.660156 9.1875 -12.765625 8.5625 -12.765625 C 7.832031 -12.765625 7.132812 -12.613281 6.46875 -12.3125 C 5.8125 -12.019531 5.242188 -11.585938 4.765625 -11.015625 C 4.285156 -10.441406 3.945312 -9.726562 3.75 -8.875 Z M 3.75 -8.875 "/></g></g></g></g></g><g transform="matrix(1, 0, 0, 1, 69, 31)"><g clip-path="url(#5e05fc3620)"><g clip-path="url(#5130770c0b)"><g fill="#000000" fill-opacity="1"><g transform="translate(0.419543, 6.356338)"><g><path d="M 2.8125 0.09375 C 2.53125 0.09375 2.257812 0.0507812 2 -0.03125 C 1.75 -0.113281 1.519531 -0.226562 1.3125 -0.375 C 1.101562 -0.53125 0.921875 -0.707031 0.765625 -0.90625 C 0.609375 -1.113281 0.488281 -1.335938 0.40625 -1.578125 C 0.320312 -1.828125 0.28125 -2.09375 0.28125 -2.375 C 0.28125 -2.644531 0.320312 -2.90625 0.40625 -3.15625 C 0.488281 -3.40625 0.609375 -3.628906 0.765625 -3.828125 C 0.921875 -4.035156 1.101562 -4.210938 1.3125 -4.359375 C 1.519531 -4.515625 1.75 -4.628906 2 -4.703125 C 2.257812 -4.785156 2.53125 -4.828125 2.8125 -4.828125 C 3.09375 -4.828125 3.359375 -4.785156 3.609375 -4.703125 C 3.859375 -4.628906 4.085938 -4.515625 4.296875 -4.359375 C 4.515625 -4.210938 4.703125 -4.035156 4.859375 -3.828125 C 5.015625 -3.628906 5.132812 -3.40625 5.21875 -3.15625 C 5.300781 -2.90625 5.34375 -2.644531 5.34375 -2.375 C 5.34375 -2.09375 5.300781 -1.828125 5.21875 -1.578125 C 5.132812 -1.335938 5.015625 -1.113281 4.859375 -0.90625 C 4.703125 -0.707031 4.515625 -0.53125 4.296875 -0.375 C 4.085938 -0.226562 3.859375 -0.113281 3.609375 -0.03125 C 3.359375 0.0507812 3.09375 0.09375 2.8125 0.09375 Z M 2.8125 -0.484375 C 3.070312 -0.484375 3.316406 -0.53125 3.546875 -0.625 C 3.785156 -0.71875 3.988281 -0.847656 4.15625 -1.015625 C 4.332031 -1.191406 4.46875 -1.394531 4.5625 -1.625 C 4.664062 -1.851562 4.71875 -2.101562 4.71875 -2.375 C 4.71875 -2.632812 4.664062 -2.878906 4.5625 -3.109375 C 4.46875 -3.347656 4.332031 -3.550781 4.15625 -3.71875 C 3.988281 -3.894531 3.785156 -4.03125 3.546875 -4.125 C 3.316406 -4.21875 3.070312 -4.265625 2.8125 -4.265625 C 2.539062 -4.265625 2.289062 -4.21875 2.0625 -4.125 C 1.832031 -4.03125 1.628906 -3.894531 1.453125 -3.71875 C 1.273438 -3.550781 1.132812 -3.347656 1.03125 -3.109375 C 0.9375 -2.878906 0.890625 -2.632812 0.890625 -2.375 C 0.890625 -2.101562 0.9375 -1.851562 1.03125 -1.625 C 1.132812 -1.394531 1.273438 -1.191406 1.453125 -1.015625 C 1.628906 -0.847656 1.832031 -0.71875 2.0625 -0.625 C 2.289062 -0.53125 2.539062 -0.484375 2.8125 -0.484375 Z M 2.8125 -0.484375 "/></g></g></g></g><g fill="#000000" fill-opacity="1"><g transform="translate(5.622973, 6.356338)"><g><path d="M 1.171875 0 L 0.578125 0 L 0.578125 -3.546875 L 1.140625 -3.546875 L 1.140625 -2.859375 C 1.210938 -3.015625 1.3125 -3.148438 1.4375 -3.265625 C 1.570312 -3.390625 1.722656 -3.484375 1.890625 -3.546875 C 2.066406 -3.617188 2.253906 -3.65625 2.453125 -3.65625 C 2.921875 -3.65625 3.273438 -3.507812 3.515625 -3.21875 C 3.765625 -2.925781 3.890625 -2.492188 3.890625 -1.921875 L 3.890625 0 L 3.296875 0 L 3.296875 -1.90625 C 3.296875 -2.320312 3.207031 -2.625 3.03125 -2.8125 C 2.851562 -3 2.609375 -3.09375 2.296875 -3.09375 C 2.148438 -3.09375 2.007812 -3.0625 1.875 -3 C 1.738281 -2.945312 1.617188 -2.867188 1.515625 -2.765625 C 1.410156 -2.660156 1.328125 -2.53125 1.265625 -2.375 C 1.203125 -2.226562 1.171875 -2.054688 1.171875 -1.859375 Z M 1.171875 0 "/></g></g></g><g fill="#000000" fill-opacity="1"><g transform="translate(9.630825, 6.356338)"><g><path d="M 1.171875 0 L 0.578125 0 L 0.578125 -4.90625 L 1.171875 -4.90625 Z M 1.171875 0 "/></g></g></g><g fill="#000000" fill-opacity="1"><g transform="translate(10.962529, 6.356338)"><g><path d="M 0.875 -4.234375 C 0.75 -4.234375 0.648438 -4.269531 0.578125 -4.34375 C 0.503906 -4.425781 0.46875 -4.519531 0.46875 -4.625 C 0.46875 -4.726562 0.503906 -4.816406 0.578125 -4.890625 C 0.648438 -4.960938 0.75 -5 0.875 -5 C 1 -5 1.097656 -4.960938 1.171875 -4.890625 C 1.242188 -4.816406 1.28125 -4.726562 1.28125 -4.625 C 1.28125 -4.519531 1.242188 -4.425781 1.171875 -4.34375 C 1.097656 -4.269531 1 -4.234375 0.875 -4.234375 Z M 1.171875 0 L 0.578125 0 L 0.578125 -3.546875 L 1.171875 -3.546875 Z M 1.171875 0 "/></g></g></g><g fill="#000000" fill-opacity="1"><g transform="translate(12.294232, 6.356338)"><g><path d="M 1.171875 0 L 0.578125 0 L 0.578125 -3.546875 L 1.140625 -3.546875 L 1.140625 -2.859375 C 1.210938 -3.015625 1.3125 -3.148438 1.4375 -3.265625 C 1.570312 -3.390625 1.722656 -3.484375 1.890625 -3.546875 C 2.066406 -3.617188 2.253906 -3.65625 2.453125 -3.65625 C 2.921875 -3.65625 3.273438 -3.507812 3.515625 -3.21875 C 3.765625 -2.925781 3.890625 -2.492188 3.890625 -1.921875 L 3.890625 0 L 3.296875 0 L 3.296875 -1.90625 C 3.296875 -2.320312 3.207031 -2.625 3.03125 -2.8125 C 2.851562 -3 2.609375 -3.09375 2.296875 -3.09375 C 2.148438 -3.09375 2.007812 -3.0625 1.875 -3 C 1.738281 -2.945312 1.617188 -2.867188 1.515625 -2.765625 C 1.410156 -2.660156 1.328125 -2.53125 1.265625 -2.375 C 1.203125 -2.226562 1.171875 -2.054688 1.171875 -1.859375 Z M 1.171875 0 "/></g></g></g><g fill="#000000" fill-opacity="1"><g transform="translate(16.302084, 6.356338)"><g><path d="M 3.828125 -1.859375 C 3.828125 -1.828125 3.828125 -1.796875 3.828125 -1.765625 C 3.828125 -1.734375 3.828125 -1.6875 3.828125 -1.625 L 0.875 -1.625 C 0.90625 -1.382812 0.976562 -1.175781 1.09375 -1 C 1.207031 -0.820312 1.347656 -0.6875 1.515625 -0.59375 C 1.691406 -0.5 1.875 -0.453125 2.0625 -0.453125 C 2.300781 -0.453125 2.503906 -0.503906 2.671875 -0.609375 C 2.847656 -0.710938 2.972656 -0.863281 3.046875 -1.0625 L 3.71875 -1.0625 C 3.664062 -0.90625 3.585938 -0.753906 3.484375 -0.609375 C 3.390625 -0.472656 3.269531 -0.347656 3.125 -0.234375 C 2.988281 -0.128906 2.832031 -0.0507812 2.65625 0 C 2.476562 0.0625 2.285156 0.09375 2.078125 0.09375 C 1.816406 0.09375 1.578125 0.046875 1.359375 -0.046875 C 1.140625 -0.140625 0.945312 -0.269531 0.78125 -0.4375 C 0.625 -0.613281 0.5 -0.816406 0.40625 -1.046875 C 0.320312 -1.273438 0.28125 -1.519531 0.28125 -1.78125 C 0.28125 -2.03125 0.320312 -2.269531 0.40625 -2.5 C 0.5 -2.726562 0.625 -2.925781 0.78125 -3.09375 C 0.945312 -3.269531 1.140625 -3.40625 1.359375 -3.5 C 1.578125 -3.601562 1.816406 -3.65625 2.078125 -3.65625 C 2.335938 -3.65625 2.570312 -3.601562 2.78125 -3.5 C 3 -3.40625 3.1875 -3.273438 3.34375 -3.109375 C 3.5 -2.941406 3.617188 -2.75 3.703125 -2.53125 C 3.785156 -2.320312 3.828125 -2.097656 3.828125 -1.859375 Z M 0.90625 -2.140625 L 3.21875 -2.140625 C 3.207031 -2.265625 3.171875 -2.382812 3.109375 -2.5 C 3.046875 -2.613281 2.960938 -2.710938 2.859375 -2.796875 C 2.753906 -2.890625 2.632812 -2.957031 2.5 -3 C 2.363281 -3.050781 2.21875 -3.078125 2.0625 -3.078125 C 1.894531 -3.078125 1.726562 -3.039062 1.5625 -2.96875 C 1.40625 -2.90625 1.269531 -2.800781 1.15625 -2.65625 C 1.039062 -2.519531 0.957031 -2.347656 0.90625 -2.140625 Z M 0.90625 -2.140625 "/></g></g></g><g fill="#000000" fill-opacity="1"><g transform="translate(19.938058, 6.356338)"><g/></g></g><g fill="#000000" fill-opacity="1"><g transform="translate(21.283663, 6.356338)"><g><path d="M 2.09375 0.09375 C 1.832031 0.09375 1.59375 0.046875 1.375 -0.046875 C 1.15625 -0.140625 0.960938 -0.269531 0.796875 -0.4375 C 0.628906 -0.613281 0.5 -0.816406 0.40625 -1.046875 C 0.320312 -1.273438 0.28125 -1.519531 0.28125 -1.78125 C 0.28125 -2.03125 0.320312 -2.269531 0.40625 -2.5 C 0.5 -2.726562 0.628906 -2.925781 0.796875 -3.09375 C 0.960938 -3.269531 1.15625 -3.40625 1.375 -3.5 C 1.59375 -3.601562 1.832031 -3.65625 2.09375 -3.65625 C 2.375 -3.65625 2.628906 -3.597656 2.859375 -3.484375 C 3.085938 -3.378906 3.28125 -3.226562 3.4375 -3.03125 C 3.601562 -2.84375 3.71875 -2.628906 3.78125 -2.390625 L 3.171875 -2.390625 C 3.078125 -2.617188 2.929688 -2.789062 2.734375 -2.90625 C 2.546875 -3.019531 2.332031 -3.078125 2.09375 -3.078125 C 1.9375 -3.078125 1.785156 -3.046875 1.640625 -2.984375 C 1.492188 -2.929688 1.363281 -2.847656 1.25 -2.734375 C 1.132812 -2.617188 1.039062 -2.476562 0.96875 -2.3125 C 0.90625 -2.15625 0.875 -1.976562 0.875 -1.78125 C 0.875 -1.570312 0.90625 -1.382812 0.96875 -1.21875 C 1.039062 -1.0625 1.132812 -0.925781 1.25 -0.8125 C 1.363281 -0.695312 1.492188 -0.609375 1.640625 -0.546875 C 1.785156 -0.484375 1.9375 -0.453125 2.09375 -0.453125 C 2.332031 -0.453125 2.546875 -0.515625 2.734375 -0.640625 C 2.929688 -0.765625 3.078125 -0.945312 3.171875 -1.1875 L 3.78125 -1.1875 C 3.71875 -0.9375 3.601562 -0.710938 3.4375 -0.515625 C 3.28125 -0.316406 3.085938 -0.164062 2.859375 -0.0625 C 2.628906 0.0390625 2.375 0.09375 2.09375 0.09375 Z M 2.09375 0.09375 "/></g></g></g><g fill="#000000" fill-opacity="1"><g transform="translate(24.877931, 6.356338)"><g><path d="M 3.828125 -1.859375 C 3.828125 -1.828125 3.828125 -1.796875 3.828125 -1.765625 C 3.828125 -1.734375 3.828125 -1.6875 3.828125 -1.625 L 0.875 -1.625 C 0.90625 -1.382812 0.976562 -1.175781 1.09375 -1 C 1.207031 -0.820312 1.347656 -0.6875 1.515625 -0.59375 C 1.691406 -0.5 1.875 -0.453125 2.0625 -0.453125 C 2.300781 -0.453125 2.503906 -0.503906 2.671875 -0.609375 C 2.847656 -0.710938 2.972656 -0.863281 3.046875 -1.0625 L 3.71875 -1.0625 C 3.664062 -0.90625 3.585938 -0.753906 3.484375 -0.609375 C 3.390625 -0.472656 3.269531 -0.347656 3.125 -0.234375 C 2.988281 -0.128906 2.832031 -0.0507812 2.65625 0 C 2.476562 0.0625 2.285156 0.09375 2.078125 0.09375 C 1.816406 0.09375 1.578125 0.046875 1.359375 -0.046875 C 1.140625 -0.140625 0.945312 -0.269531 0.78125 -0.4375 C 0.625 -0.613281 0.5 -0.816406 0.40625 -1.046875 C 0.320312 -1.273438 0.28125 -1.519531 0.28125 -1.78125 C 0.28125 -2.03125 0.320312 -2.269531 0.40625 -2.5 C 0.5 -2.726562 0.625 -2.925781 0.78125 -3.09375 C 0.945312 -3.269531 1.140625 -3.40625 1.359375 -3.5 C 1.578125 -3.601562 1.816406 -3.65625 2.078125 -3.65625 C 2.335938 -3.65625 2.570312 -3.601562 2.78125 -3.5 C 3 -3.40625 3.1875 -3.273438 3.34375 -3.109375 C 3.5 -2.941406 3.617188 -2.75 3.703125 -2.53125 C 3.785156 -2.320312 3.828125 -2.097656 3.828125 -1.859375 Z M 0.90625 -2.140625 L 3.21875 -2.140625 C 3.207031 -2.265625 3.171875 -2.382812 3.109375 -2.5 C 3.046875 -2.613281 2.960938 -2.710938 2.859375 -2.796875 C 2.753906 -2.890625 2.632812 -2.957031 2.5 -3 C 2.363281 -3.050781 2.21875 -3.078125 2.0625 -3.078125 C 1.894531 -3.078125 1.726562 -3.039062 1.5625 -2.96875 C 1.40625 -2.90625 1.269531 -2.800781 1.15625 -2.65625 C 1.039062 -2.519531 0.957031 -2.347656 0.90625 -2.140625 Z M 0.90625 -2.140625 "/></g></g></g><g fill="#000000" fill-opacity="1"><g transform="translate(28.513906, 6.356338)"><g><path d="M 1.171875 0 L 0.578125 0 L 0.578125 -3.546875 L 1.15625 -3.546875 L 1.15625 -2.75 C 1.238281 -3 1.375 -3.191406 1.5625 -3.328125 C 1.75 -3.472656 1.972656 -3.546875 2.234375 -3.546875 L 2.578125 -3.546875 L 2.578125 -3.015625 L 2.265625 -3.015625 C 2.054688 -3.015625 1.867188 -2.960938 1.703125 -2.859375 C 1.535156 -2.753906 1.40625 -2.597656 1.3125 -2.390625 C 1.21875 -2.191406 1.171875 -1.953125 1.171875 -1.671875 Z M 1.171875 0 "/></g></g></g><g fill="#000000" fill-opacity="1"><g transform="translate(30.797901, 6.356338)"><g><path d="M 2.59375 0 L 1.9375 0 C 1.8125 0 1.679688 -0.015625 1.546875 -0.046875 C 1.410156 -0.0859375 1.285156 -0.148438 1.171875 -0.234375 C 1.066406 -0.328125 0.984375 -0.460938 0.921875 -0.640625 C 0.859375 -0.816406 0.828125 -1.039062 0.828125 -1.3125 L 0.828125 -3.015625 L 0.03125 -3.015625 L 0.03125 -3.546875 L 0.828125 -3.546875 L 0.828125 -4.609375 L 1.421875 -4.609375 L 1.421875 -3.546875 L 2.59375 -3.546875 L 2.59375 -3.015625 L 1.421875 -3.015625 L 1.421875 -1.28125 C 1.421875 -1.125 1.4375 -0.992188 1.46875 -0.890625 C 1.507812 -0.785156 1.5625 -0.703125 1.625 -0.640625 C 1.6875 -0.585938 1.753906 -0.550781 1.828125 -0.53125 C 1.898438 -0.519531 1.976562 -0.515625 2.0625 -0.515625 L 2.59375 -0.515625 Z M 2.59375 0 "/></g></g></g><g fill="#000000" fill-opacity="1"><g transform="translate(33.17921, 6.356338)"><g><path d="M 0.875 -4.234375 C 0.75 -4.234375 0.648438 -4.269531 0.578125 -4.34375 C 0.503906 -4.425781 0.46875 -4.519531 0.46875 -4.625 C 0.46875 -4.726562 0.503906 -4.816406 0.578125 -4.890625 C 0.648438 -4.960938 0.75 -5 0.875 -5 C 1 -5 1.097656 -4.960938 1.171875 -4.890625 C 1.242188 -4.816406 1.28125 -4.726562 1.28125 -4.625 C 1.28125 -4.519531 1.242188 -4.425781 1.171875 -4.34375 C 1.097656 -4.269531 1 -4.234375 0.875 -4.234375 Z M 1.171875 0 L 0.578125 0 L 0.578125 -3.546875 L 1.171875 -3.546875 Z M 1.171875 0 "/></g></g></g><g fill="#000000" fill-opacity="1"><g transform="translate(34.510914, 6.356338)"><g><path d="M 1.4375 0 L 0.828125 0 L 0.828125 -3.03125 L 0.078125 -3.03125 L 0.078125 -3.546875 L 0.828125 -3.546875 L 0.828125 -3.796875 C 0.828125 -3.941406 0.847656 -4.082031 0.890625 -4.21875 C 0.929688 -4.351562 0.992188 -4.472656 1.078125 -4.578125 C 1.171875 -4.679688 1.28125 -4.765625 1.40625 -4.828125 C 1.539062 -4.890625 1.695312 -4.921875 1.875 -4.921875 L 2.46875 -4.921875 L 2.46875 -4.421875 L 2.015625 -4.421875 C 1.898438 -4.421875 1.796875 -4.390625 1.703125 -4.328125 C 1.617188 -4.273438 1.550781 -4.195312 1.5 -4.09375 C 1.457031 -3.988281 1.4375 -3.875 1.4375 -3.75 L 1.4375 -3.546875 L 2.453125 -3.546875 L 2.453125 -3.03125 L 1.4375 -3.03125 Z M 1.4375 0 "/></g></g></g><g fill="#000000" fill-opacity="1"><g transform="translate(36.607231, 6.356338)"><g><path d="M 0.875 -4.234375 C 0.75 -4.234375 0.648438 -4.269531 0.578125 -4.34375 C 0.503906 -4.425781 0.46875 -4.519531 0.46875 -4.625 C 0.46875 -4.726562 0.503906 -4.816406 0.578125 -4.890625 C 0.648438 -4.960938 0.75 -5 0.875 -5 C 1 -5 1.097656 -4.960938 1.171875 -4.890625 C 1.242188 -4.816406 1.28125 -4.726562 1.28125 -4.625 C 1.28125 -4.519531 1.242188 -4.425781 1.171875 -4.34375 C 1.097656 -4.269531 1 -4.234375 0.875 -4.234375 Z M 1.171875 0 L 0.578125 0 L 0.578125 -3.546875 L 1.171875 -3.546875 Z M 1.171875 0 "/></g></g></g><g fill="#000000" fill-opacity="1"><g transform="translate(37.938934, 6.356338)"><g><path d="M 2.09375 0.09375 C 1.832031 0.09375 1.59375 0.046875 1.375 -0.046875 C 1.15625 -0.140625 0.960938 -0.269531 0.796875 -0.4375 C 0.628906 -0.613281 0.5 -0.816406 0.40625 -1.046875 C 0.320312 -1.273438 0.28125 -1.519531 0.28125 -1.78125 C 0.28125 -2.03125 0.320312 -2.269531 0.40625 -2.5 C 0.5 -2.726562 0.628906 -2.925781 0.796875 -3.09375 C 0.960938 -3.269531 1.15625 -3.40625 1.375 -3.5 C 1.59375 -3.601562 1.832031 -3.65625 2.09375 -3.65625 C 2.375 -3.65625 2.628906 -3.597656 2.859375 -3.484375 C 3.085938 -3.378906 3.28125 -3.226562 3.4375 -3.03125 C 3.601562 -2.84375 3.71875 -2.628906 3.78125 -2.390625 L 3.171875 -2.390625 C 3.078125 -2.617188 2.929688 -2.789062 2.734375 -2.90625 C 2.546875 -3.019531 2.332031 -3.078125 2.09375 -3.078125 C 1.9375 -3.078125 1.785156 -3.046875 1.640625 -2.984375 C 1.492188 -2.929688 1.363281 -2.847656 1.25 -2.734375 C 1.132812 -2.617188 1.039062 -2.476562 0.96875 -2.3125 C 0.90625 -2.15625 0.875 -1.976562 0.875 -1.78125 C 0.875 -1.570312 0.90625 -1.382812 0.96875 -1.21875 C 1.039062 -1.0625 1.132812 -0.925781 1.25 -0.8125 C 1.363281 -0.695312 1.492188 -0.609375 1.640625 -0.546875 C 1.785156 -0.484375 1.9375 -0.453125 2.09375 -0.453125 C 2.332031 -0.453125 2.546875 -0.515625 2.734375 -0.640625 C 2.929688 -0.765625 3.078125 -0.945312 3.171875 -1.1875 L 3.78125 -1.1875 C 3.71875 -0.9375 3.601562 -0.710938 3.4375 -0.515625 C 3.28125 -0.316406 3.085938 -0.164062 2.859375 -0.0625 C 2.628906 0.0390625 2.375 0.09375 2.09375 0.09375 Z M 2.09375 0.09375 "/></g></g></g><g fill="#000000" fill-opacity="1"><g transform="translate(41.533202, 6.356338)"><g><path d="M 1.984375 0.09375 C 1.742188 0.09375 1.519531 0.046875 1.3125 -0.046875 C 1.101562 -0.140625 0.921875 -0.269531 0.765625 -0.4375 C 0.609375 -0.613281 0.488281 -0.816406 0.40625 -1.046875 C 0.320312 -1.273438 0.28125 -1.519531 0.28125 -1.78125 C 0.28125 -2.03125 0.320312 -2.269531 0.40625 -2.5 C 0.488281 -2.726562 0.609375 -2.925781 0.765625 -3.09375 C 0.921875 -3.269531 1.101562 -3.40625 1.3125 -3.5 C 1.519531 -3.59375 1.742188 -3.640625 1.984375 -3.640625 C 2.203125 -3.640625 2.398438 -3.601562 2.578125 -3.53125 C 2.765625 -3.46875 2.925781 -3.367188 3.0625 -3.234375 C 3.207031 -3.109375 3.316406 -2.957031 3.390625 -2.78125 L 3.390625 -3.546875 L 3.96875 -3.546875 L 3.96875 0 L 3.390625 0 L 3.390625 -0.75 C 3.316406 -0.582031 3.207031 -0.429688 3.0625 -0.296875 C 2.925781 -0.171875 2.765625 -0.0703125 2.578125 0 C 2.398438 0.0625 2.203125 0.09375 1.984375 0.09375 Z M 2.125 -0.453125 C 2.300781 -0.453125 2.460938 -0.484375 2.609375 -0.546875 C 2.765625 -0.617188 2.898438 -0.710938 3.015625 -0.828125 C 3.128906 -0.953125 3.21875 -1.09375 3.28125 -1.25 C 3.34375 -1.414062 3.375 -1.59375 3.375 -1.78125 C 3.375 -1.957031 3.34375 -2.125 3.28125 -2.28125 C 3.21875 -2.445312 3.125 -2.585938 3 -2.703125 C 2.882812 -2.828125 2.753906 -2.921875 2.609375 -2.984375 C 2.460938 -3.046875 2.300781 -3.078125 2.125 -3.078125 C 1.945312 -3.078125 1.78125 -3.046875 1.625 -2.984375 C 1.476562 -2.921875 1.347656 -2.832031 1.234375 -2.71875 C 1.117188 -2.601562 1.03125 -2.460938 0.96875 -2.296875 C 0.90625 -2.140625 0.875 -1.96875 0.875 -1.78125 C 0.875 -1.582031 0.90625 -1.398438 0.96875 -1.234375 C 1.03125 -1.078125 1.117188 -0.9375 1.234375 -0.8125 C 1.347656 -0.695312 1.484375 -0.609375 1.640625 -0.546875 C 1.796875 -0.484375 1.957031 -0.453125 2.125 -0.453125 Z M 2.125 -0.453125 "/></g></g></g><g fill="#000000" fill-opacity="1"><g transform="translate(45.659222, 6.356338)"><g><path d="M 2.59375 0 L 1.9375 0 C 1.8125 0 1.679688 -0.015625 1.546875 -0.046875 C 1.410156 -0.0859375 1.285156 -0.148438 1.171875 -0.234375 C 1.066406 -0.328125 0.984375 -0.460938 0.921875 -0.640625 C 0.859375 -0.816406 0.828125 -1.039062 0.828125 -1.3125 L 0.828125 -3.015625 L 0.03125 -3.015625 L 0.03125 -3.546875 L 0.828125 -3.546875 L 0.828125 -4.609375 L 1.421875 -4.609375 L 1.421875 -3.546875 L 2.59375 -3.546875 L 2.59375 -3.015625 L 1.421875 -3.015625 L 1.421875 -1.28125 C 1.421875 -1.125 1.4375 -0.992188 1.46875 -0.890625 C 1.507812 -0.785156 1.5625 -0.703125 1.625 -0.640625 C 1.6875 -0.585938 1.753906 -0.550781 1.828125 -0.53125 C 1.898438 -0.519531 1.976562 -0.515625 2.0625 -0.515625 L 2.59375 -0.515625 Z M 2.59375 0 "/></g></g></g><g fill="#000000" fill-opacity="1"><g transform="translate(48.040531, 6.356338)"><g><path d="M 0.875 -4.234375 C 0.75 -4.234375 0.648438 -4.269531 0.578125 -4.34375 C 0.503906 -4.425781 0.46875 -4.519531 0.46875 -4.625 C 0.46875 -4.726562 0.503906 -4.816406 0.578125 -4.890625 C 0.648438 -4.960938 0.75 -5 0.875 -5 C 1 -5 1.097656 -4.960938 1.171875 -4.890625 C 1.242188 -4.816406 1.28125 -4.726562 1.28125 -4.625 C 1.28125 -4.519531 1.242188 -4.425781 1.171875 -4.34375 C 1.097656 -4.269531 1 -4.234375 0.875 -4.234375 Z M 1.171875 0 L 0.578125 0 L 0.578125 -3.546875 L 1.171875 -3.546875 Z M 1.171875 0 "/></g></g></g><g fill="#000000" fill-opacity="1"><g transform="translate(49.372234, 6.356338)"><g><path d="M 2.125 0.09375 C 1.851562 0.09375 1.601562 0.046875 1.375 -0.046875 C 1.15625 -0.140625 0.960938 -0.269531 0.796875 -0.4375 C 0.628906 -0.613281 0.5 -0.816406 0.40625 -1.046875 C 0.320312 -1.273438 0.28125 -1.519531 0.28125 -1.78125 C 0.28125 -2.03125 0.320312 -2.269531 0.40625 -2.5 C 0.5 -2.726562 0.628906 -2.925781 0.796875 -3.09375 C 0.960938 -3.269531 1.15625 -3.40625 1.375 -3.5 C 1.601562 -3.601562 1.851562 -3.65625 2.125 -3.65625 C 2.382812 -3.65625 2.625 -3.601562 2.84375 -3.5 C 3.070312 -3.40625 3.269531 -3.269531 3.4375 -3.09375 C 3.601562 -2.925781 3.734375 -2.726562 3.828125 -2.5 C 3.921875 -2.269531 3.96875 -2.03125 3.96875 -1.78125 C 3.96875 -1.519531 3.921875 -1.273438 3.828125 -1.046875 C 3.734375 -0.816406 3.601562 -0.613281 3.4375 -0.4375 C 3.269531 -0.269531 3.070312 -0.140625 2.84375 -0.046875 C 2.625 0.046875 2.382812 0.09375 2.125 0.09375 Z M 2.125 -0.46875 C 2.300781 -0.46875 2.460938 -0.5 2.609375 -0.5625 C 2.765625 -0.625 2.898438 -0.710938 3.015625 -0.828125 C 3.128906 -0.953125 3.21875 -1.09375 3.28125 -1.25 C 3.34375 -1.414062 3.375 -1.59375 3.375 -1.78125 C 3.375 -1.96875 3.34375 -2.140625 3.28125 -2.296875 C 3.21875 -2.453125 3.128906 -2.585938 3.015625 -2.703125 C 2.898438 -2.828125 2.765625 -2.921875 2.609375 -2.984375 C 2.460938 -3.046875 2.300781 -3.078125 2.125 -3.078125 C 1.945312 -3.078125 1.78125 -3.046875 1.625 -2.984375 C 1.476562 -2.921875 1.347656 -2.828125 1.234375 -2.703125 C 1.117188 -2.585938 1.03125 -2.453125 0.96875 -2.296875 C 0.90625 -2.140625 0.875 -1.96875 0.875 -1.78125 C 0.875 -1.59375 0.90625 -1.414062 0.96875 -1.25 C 1.03125 -1.09375 1.117188 -0.953125 1.234375 -0.828125 C 1.347656 -0.710938 1.476562 -0.625 1.625 -0.5625 C 1.78125 -0.5 1.945312 -0.46875 2.125 -0.46875 Z M 2.125 -0.46875 "/></g></g></g><g fill="#000000" fill-opacity="1"><g transform="translate(53.19936, 6.356338)"><g><path d="M 1.171875 0 L 0.578125 0 L 0.578125 -3.546875 L 1.140625 -3.546875 L 1.140625 -2.859375 C 1.210938 -3.015625 1.3125 -3.148438 1.4375 -3.265625 C 1.570312 -3.390625 1.722656 -3.484375 1.890625 -3.546875 C 2.066406 -3.617188 2.253906 -3.65625 2.453125 -3.65625 C 2.921875 -3.65625 3.273438 -3.507812 3.515625 -3.21875 C 3.765625 -2.925781 3.890625 -2.492188 3.890625 -1.921875 L 3.890625 0 L 3.296875 0 L 3.296875 -1.90625 C 3.296875 -2.320312 3.207031 -2.625 3.03125 -2.8125 C 2.851562 -3 2.609375 -3.09375 2.296875 -3.09375 C 2.148438 -3.09375 2.007812 -3.0625 1.875 -3 C 1.738281 -2.945312 1.617188 -2.867188 1.515625 -2.765625 C 1.410156 -2.660156 1.328125 -2.53125 1.265625 -2.375 C 1.203125 -2.226562 1.171875 -2.054688 1.171875 -1.859375 Z M 1.171875 0 "/></g></g></g><g fill="#000000" fill-opacity="1"><g transform="translate(57.207212, 6.356338)"><g><path d="M 1.75 0.09375 C 1.507812 0.09375 1.296875 0.0625 1.109375 0 C 0.921875 -0.0625 0.765625 -0.148438 0.640625 -0.265625 C 0.515625 -0.378906 0.421875 -0.503906 0.359375 -0.640625 C 0.304688 -0.785156 0.28125 -0.9375 0.28125 -1.09375 L 0.859375 -1.078125 C 0.859375 -0.953125 0.890625 -0.835938 0.953125 -0.734375 C 1.023438 -0.628906 1.128906 -0.546875 1.265625 -0.484375 C 1.398438 -0.421875 1.566406 -0.390625 1.765625 -0.390625 C 2.035156 -0.390625 2.238281 -0.441406 2.375 -0.546875 C 2.507812 -0.648438 2.578125 -0.789062 2.578125 -0.96875 C 2.578125 -1.101562 2.539062 -1.207031 2.46875 -1.28125 C 2.394531 -1.351562 2.289062 -1.410156 2.15625 -1.453125 C 2.03125 -1.492188 1.875 -1.53125 1.6875 -1.5625 C 1.519531 -1.582031 1.359375 -1.613281 1.203125 -1.65625 C 1.054688 -1.707031 0.925781 -1.769531 0.8125 -1.84375 C 0.695312 -1.925781 0.601562 -2.03125 0.53125 -2.15625 C 0.46875 -2.28125 0.4375 -2.429688 0.4375 -2.609375 C 0.4375 -2.804688 0.484375 -2.984375 0.578125 -3.140625 C 0.671875 -3.296875 0.8125 -3.421875 1 -3.515625 C 1.195312 -3.609375 1.4375 -3.65625 1.71875 -3.65625 C 1.988281 -3.65625 2.222656 -3.609375 2.421875 -3.515625 C 2.628906 -3.421875 2.789062 -3.289062 2.90625 -3.125 C 3.019531 -2.96875 3.078125 -2.785156 3.078125 -2.578125 L 2.484375 -2.578125 C 2.472656 -2.753906 2.398438 -2.894531 2.265625 -3 C 2.128906 -3.101562 1.945312 -3.15625 1.71875 -3.15625 C 1.5625 -3.15625 1.429688 -3.128906 1.328125 -3.078125 C 1.234375 -3.023438 1.160156 -2.957031 1.109375 -2.875 C 1.054688 -2.800781 1.03125 -2.71875 1.03125 -2.625 C 1.03125 -2.507812 1.054688 -2.414062 1.109375 -2.34375 C 1.160156 -2.269531 1.25 -2.210938 1.375 -2.171875 C 1.5 -2.128906 1.671875 -2.085938 1.890625 -2.046875 C 2.046875 -2.023438 2.203125 -1.992188 2.359375 -1.953125 C 2.515625 -1.910156 2.65625 -1.851562 2.78125 -1.78125 C 2.90625 -1.707031 3.003906 -1.609375 3.078125 -1.484375 C 3.148438 -1.359375 3.1875 -1.195312 3.1875 -1 C 3.1875 -0.757812 3.125 -0.554688 3 -0.390625 C 2.882812 -0.222656 2.71875 -0.0976562 2.5 -0.015625 C 2.289062 0.0546875 2.039062 0.09375 1.75 0.09375 Z M 1.75 0.09375 "/></g></g></g></g></g><g clip-path="url(#2538fa3379)"><g clip-path="url(#0e6573aa33)"><g transform="matrix(1, 0, 0, 1, 121, 14)"><g clip-path="url(#0254a9baef)"><g clip-path="url(#17bf36b365)"><g clip-path="url(#c7cc6ca664)"><path fill="#00bf63" d="M 0.394531 0.257812 L 16.878906 0.257812 L 16.878906 16.742188 L 0.394531 16.742188 Z M 0.394531 0.257812 " fill-opacity="1" fill-rule="nonzero"/></g></g></g></g></g></g><g clip-path="url(#4047862e11)"><g clip-path="url(#e4751e39dd)"><g transform="matrix(1, 0, 0, 1, 117, 14)"><g clip-path="url(#dcce70f40b)"><g clip-path="url(#5b78c63968)"><g clip-path="url(#a786d12872)"><path fill="#f4f4f4" d="M 0.320312 0.257812 L 16.804688 0.257812 L 16.804688 16.742188 L 0.320312 16.742188 Z M 0.320312 0.257812 " fill-opacity="1" fill-rule="nonzero"/></g></g></g></g></g></g><g clip-path="url(#1de9b03b2b)"><g clip-path="url(#885e5b201f)"><g transform="matrix(1, 0, 0, 1, 113, 14)"><g clip-path="url(#981e007440)"><g clip-path="url(#84840eb4b2)"><g clip-path="url(#562b225b17)"><path fill="#00bf63" d="M 0.15625 0.257812 L 16.636719 0.257812 L 16.636719 16.742188 L 0.15625 16.742188 Z M 0.15625 0.257812 " fill-opacity="1" fill-rule="nonzero"/></g></g></g></g></g></g></svg>