<svg xmlns="http://www.w3.org/2000/svg" xmlns:xlink="http://www.w3.org/1999/xlink" width="40" zoomAndPan="magnify" viewBox="0 0 30 30.000001" height="40" preserveAspectRatio="xMidYMid meet" version="1.0"><defs><clipPath id="b89cc949bc"><path d="M 11.03125 6.578125 L 26.90625 6.578125 L 26.90625 22.453125 L 11.03125 22.453125 Z M 11.03125 6.578125 " clip-rule="nonzero"/></clipPath><clipPath id="b36d2b1ddd"><path d="M 18.96875 6.578125 C 14.585938 6.578125 11.03125 10.132812 11.03125 14.515625 C 11.03125 18.898438 14.585938 22.453125 18.96875 22.453125 C 23.351562 22.453125 26.90625 18.898438 26.90625 14.515625 C 26.90625 10.132812 23.351562 6.578125 18.96875 6.578125 Z M 18.96875 6.578125 " clip-rule="nonzero"/></clipPath><clipPath id="9cad58bc33"><path d="M 0.03125 0.578125 L 15.90625 0.578125 L 15.90625 16.453125 L 0.03125 16.453125 Z M 0.03125 0.578125 " clip-rule="nonzero"/></clipPath><clipPath id="23e8aa387f"><path d="M 7.96875 0.578125 C 3.585938 0.578125 0.03125 4.132812 0.03125 8.515625 C 0.03125 12.898438 3.585938 16.453125 7.96875 16.453125 C 12.351562 16.453125 15.90625 12.898438 15.90625 8.515625 C 15.90625 4.132812 12.351562 0.578125 7.96875 0.578125 Z M 7.96875 0.578125 " clip-rule="nonzero"/></clipPath><clipPath id="18f9632891"><rect x="0" width="16" y="0" height="17"/></clipPath><clipPath id="27e85e2966"><path d="M 7.105469 6.578125 L 22.980469 6.578125 L 22.980469 22.453125 L 7.105469 22.453125 Z M 7.105469 6.578125 " clip-rule="nonzero"/></clipPath><clipPath id="398d9a0d47"><path d="M 15.042969 6.578125 C 10.660156 6.578125 7.105469 10.132812 7.105469 14.515625 C 7.105469 18.898438 10.660156 22.453125 15.042969 22.453125 C 19.425781 22.453125 22.980469 18.898438 22.980469 14.515625 C 22.980469 10.132812 19.425781 6.578125 15.042969 6.578125 Z M 15.042969 6.578125 " clip-rule="nonzero"/></clipPath><clipPath id="704fa6c740"><path d="M 0.105469 0.578125 L 15.980469 0.578125 L 15.980469 16.453125 L 0.105469 16.453125 Z M 0.105469 0.578125 " clip-rule="nonzero"/></clipPath><clipPath id="c6cd98fa6a"><path d="M 8.042969 0.578125 C 3.660156 0.578125 0.105469 4.132812 0.105469 8.515625 C 0.105469 12.898438 3.660156 16.453125 8.042969 16.453125 C 12.425781 16.453125 15.980469 12.898438 15.980469 8.515625 C 15.980469 4.132812 12.425781 0.578125 8.042969 0.578125 Z M 8.042969 0.578125 " clip-rule="nonzero"/></clipPath><clipPath id="6cd543822c"><rect x="0" width="16" y="0" height="17"/></clipPath><clipPath id="9b698cf78f"><path d="M 3.09375 6.578125 L 18.96875 6.578125 L 18.96875 22.453125 L 3.09375 22.453125 Z M 3.09375 6.578125 " clip-rule="nonzero"/></clipPath><clipPath id="ffb5fa0079"><path d="M 11.03125 6.578125 C 6.648438 6.578125 3.09375 10.132812 3.09375 14.515625 C 3.09375 18.898438 6.648438 22.453125 11.03125 22.453125 C 15.414062 22.453125 18.96875 18.898438 18.96875 14.515625 C 18.96875 10.132812 15.414062 6.578125 11.03125 6.578125 Z M 11.03125 6.578125 " clip-rule="nonzero"/></clipPath><clipPath id="05a07633ed"><path d="M 0.09375 0.578125 L 15.96875 0.578125 L 15.96875 16.453125 L 0.09375 16.453125 Z M 0.09375 0.578125 " clip-rule="nonzero"/></clipPath><clipPath id="9b955c532c"><path d="M 8.03125 0.578125 C 3.648438 0.578125 0.09375 4.132812 0.09375 8.515625 C 0.09375 12.898438 3.648438 16.453125 8.03125 16.453125 C 12.414062 16.453125 15.96875 12.898438 15.96875 8.515625 C 15.96875 4.132812 12.414062 0.578125 8.03125 0.578125 Z M 8.03125 0.578125 " clip-rule="nonzero"/></clipPath><clipPath id="1f9c2b7a9d"><rect x="0" width="16" y="0" height="17"/></clipPath></defs><g clip-path="url(#b89cc949bc)"><g clip-path="url(#b36d2b1ddd)"><g transform="matrix(1, 0, 0, 1, 11, 6)"><g clip-path="url(#18f9632891)"><g clip-path="url(#9cad58bc33)"><g clip-path="url(#23e8aa387f)"><path fill="#00bf63" d="M 0.03125 0.578125 L 15.90625 0.578125 L 15.90625 16.453125 L 0.03125 16.453125 Z M 0.03125 0.578125 " fill-opacity="1" fill-rule="nonzero"/></g></g></g></g></g></g><g clip-path="url(#27e85e2966)"><g clip-path="url(#398d9a0d47)"><g transform="matrix(1, 0, 0, 1, 7, 6)"><g clip-path="url(#6cd543822c)"><g clip-path="url(#704fa6c740)"><g clip-path="url(#c6cd98fa6a)"><path fill="#f4f4f4" d="M 0.105469 0.578125 L 15.980469 0.578125 L 15.980469 16.453125 L 0.105469 16.453125 Z M 0.105469 0.578125 " fill-opacity="1" fill-rule="nonzero"/></g></g></g></g></g></g><g clip-path="url(#9b698cf78f)"><g clip-path="url(#ffb5fa0079)"><g transform="matrix(1, 0, 0, 1, 3, 6)"><g clip-path="url(#1f9c2b7a9d)"><g clip-path="url(#05a07633ed)"><g clip-path="url(#9b955c532c)"><path fill="#00bf63" d="M 0.09375 0.578125 L 15.96875 0.578125 L 15.96875 16.453125 L 0.09375 16.453125 Z M 0.09375 0.578125 " fill-opacity="1" fill-rule="nonzero"/></g></g></g></g></g></g></svg>