<svg xmlns="http://www.w3.org/2000/svg" xmlns:xlink="http://www.w3.org/1999/xlink" width="40" zoomAndPan="magnify" viewBox="0 0 30 30.000001" height="40" preserveAspectRatio="xMidYMid meet" version="1.0"><defs><g/><clipPath id="03cc4b14fc"><path d="M 5 4.210938 L 25 4.210938 L 25 24.535156 L 5 24.535156 Z M 5 4.210938 " clip-rule="nonzero"/></clipPath><clipPath id="14c10056b7"><path d="M 0.167969 0.117188 L 1 0.117188 L 1 1 L 0.167969 1 Z M 0.167969 0.117188 " clip-rule="nonzero"/></clipPath><clipPath id="761e0301ae"><path d="M 0.167969 0.117188 L 2 0.117188 L 2 1 L 0.167969 1 Z M 0.167969 0.117188 " clip-rule="nonzero"/></clipPath><clipPath id="97fe52af58"><path d="M 1 0.117188 L 2 0.117188 L 2 1 L 1 1 Z M 1 0.117188 " clip-rule="nonzero"/></clipPath><clipPath id="ea3c7ffcff"><path d="M 0.167969 1 L 1 1 L 1 1.742188 L 0.167969 1.742188 Z M 0.167969 1 " clip-rule="nonzero"/></clipPath><clipPath id="b43ad96758"><path d="M 0.167969 1 L 2 1 L 2 1.742188 L 0.167969 1.742188 Z M 0.167969 1 " clip-rule="nonzero"/></clipPath><clipPath id="3bf9208db3"><path d="M 1 1 L 2 1 L 2 1.742188 L 1 1.742188 Z M 1 1 " clip-rule="nonzero"/></clipPath><clipPath id="75778375fa"><path d="M 1 1 L 2.257812 1 L 2.257812 1.742188 L 1 1.742188 Z M 1 1 " clip-rule="nonzero"/></clipPath><clipPath id="4bd59a93cc"><rect x="0" width="3" y="0" height="2"/></clipPath></defs><g clip-path="url(#03cc4b14fc)"><path fill="#000000" d="M 8.972656 20.925781 L 9.222656 21.175781 C 9.929688 21.90625 9.921875 23.085938 9.199219 23.804688 C 8.480469 24.527344 7.300781 24.535156 6.570312 23.828125 L 6.546875 23.804688 L 6.320312 23.582031 L 5.703125 22.960938 C 4.972656 22.230469 4.972656 21.039062 5.703125 20.308594 C 6.429688 19.578125 7.625 19.578125 8.355469 20.308594 Z M 21.488281 10.664062 L 21.707031 10.441406 L 21.960938 10.191406 L 24.273438 7.878906 C 25.003906 7.148438 25.003906 5.957031 24.273438 5.222656 C 23.542969 4.496094 22.347656 4.496094 21.621094 5.222656 L 17.507812 9.335938 C 16.78125 10.0625 16.78125 11.257812 17.507812 11.988281 L 18.835938 13.316406 L 19.074219 13.550781 L 21.636719 16.113281 C 22.367188 16.84375 23.558594 16.84375 24.292969 16.113281 C 25.019531 15.386719 25.019531 14.191406 24.292969 13.460938 L 21.726562 10.898438 Z M 5.808594 5.242188 L 5.808594 5.238281 C 6.539062 4.511719 7.734375 4.511719 8.460938 5.238281 L 24.257812 21.035156 C 24.988281 21.765625 24.988281 22.960938 24.257812 23.6875 C 23.527344 24.417969 22.332031 24.417969 21.601562 23.6875 L 5.808594 7.894531 C 5.078125 7.164062 5.078125 5.972656 5.808594 5.242188 Z M 5.785156 12.804688 C 6.515625 12.074219 7.707031 12.074219 8.4375 12.804688 L 10.238281 14.601562 L 16.695312 21.058594 C 17.421875 21.789062 17.421875 22.984375 16.695312 23.710938 C 15.960938 24.441406 14.769531 24.441406 14.039062 23.710938 L 11.476562 21.148438 L 7.585938 17.253906 L 5.785156 15.457031 C 5.058594 14.726562 5.058594 13.53125 5.785156 12.804688 Z M 5.785156 12.804688 " fill-opacity="1" fill-rule="evenodd"/></g><g transform="matrix(1, 0, 0, 1, 11, 18)"><g clip-path="url(#4bd59a93cc)"><g clip-path="url(#14c10056b7)"><g fill="#000000" fill-opacity="1"><g transform="translate(0.559153, 0.739776)"><g><path d="M 0.328125 0 L 0.25 0 L 0.234375 -0.078125 L 0.09375 -0.078125 L 0.078125 0 L 0 0 L 0.125 -0.34375 L 0.203125 -0.34375 Z M 0.171875 -0.265625 L 0.125 -0.140625 L 0.203125 -0.140625 Z M 0.171875 -0.265625 "/></g></g></g></g><g clip-path="url(#761e0301ae)"><g fill="#000000" fill-opacity="1"><g transform="translate(0.892035, 0.739776)"><g><path d="M 0.125 0 C 0.101562 0 0.0820312 0 0.0625 0 C 0.0507812 -0.0078125 0.0390625 -0.0234375 0.03125 -0.046875 C 0.0195312 -0.0664062 0.015625 -0.09375 0.015625 -0.125 C 0.015625 -0.15625 0.0195312 -0.179688 0.03125 -0.203125 C 0.0390625 -0.222656 0.0507812 -0.238281 0.0625 -0.25 C 0.0820312 -0.257812 0.101562 -0.265625 0.125 -0.265625 C 0.144531 -0.265625 0.160156 -0.257812 0.171875 -0.25 C 0.179688 -0.25 0.191406 -0.242188 0.203125 -0.234375 L 0.203125 -0.359375 L 0.265625 -0.359375 L 0.265625 0 L 0.203125 0 L 0.203125 -0.03125 C 0.191406 -0.0195312 0.179688 -0.0078125 0.171875 0 C 0.160156 0 0.144531 0 0.125 0 Z M 0.15625 -0.046875 C 0.164062 -0.046875 0.175781 -0.0507812 0.1875 -0.0625 C 0.195312 -0.0820312 0.203125 -0.101562 0.203125 -0.125 C 0.203125 -0.15625 0.195312 -0.175781 0.1875 -0.1875 C 0.175781 -0.195312 0.164062 -0.203125 0.15625 -0.203125 C 0.132812 -0.203125 0.117188 -0.195312 0.109375 -0.1875 C 0.0976562 -0.175781 0.09375 -0.15625 0.09375 -0.125 C 0.09375 -0.101562 0.0976562 -0.0820312 0.109375 -0.0625 C 0.117188 -0.0507812 0.132812 -0.046875 0.15625 -0.046875 Z M 0.15625 -0.046875 "/></g></g></g></g><g clip-path="url(#97fe52af58)"><g fill="#000000" fill-opacity="1"><g transform="translate(1.200856, 0.739776)"><g><path d="M 0.125 0 C 0.101562 0 0.0820312 0 0.0625 0 C 0.0507812 -0.0078125 0.0390625 -0.0234375 0.03125 -0.046875 C 0.0195312 -0.0664062 0.015625 -0.09375 0.015625 -0.125 C 0.015625 -0.15625 0.0195312 -0.179688 0.03125 -0.203125 C 0.0390625 -0.222656 0.0507812 -0.238281 0.0625 -0.25 C 0.0820312 -0.257812 0.101562 -0.265625 0.125 -0.265625 C 0.144531 -0.265625 0.160156 -0.257812 0.171875 -0.25 C 0.179688 -0.25 0.191406 -0.242188 0.203125 -0.234375 L 0.203125 -0.359375 L 0.265625 -0.359375 L 0.265625 0 L 0.203125 0 L 0.203125 -0.03125 C 0.191406 -0.0195312 0.179688 -0.0078125 0.171875 0 C 0.160156 0 0.144531 0 0.125 0 Z M 0.15625 -0.046875 C 0.164062 -0.046875 0.175781 -0.0507812 0.1875 -0.0625 C 0.195312 -0.0820312 0.203125 -0.101562 0.203125 -0.125 C 0.203125 -0.15625 0.195312 -0.175781 0.1875 -0.1875 C 0.175781 -0.195312 0.164062 -0.203125 0.15625 -0.203125 C 0.132812 -0.203125 0.117188 -0.195312 0.109375 -0.1875 C 0.0976562 -0.175781 0.09375 -0.15625 0.09375 -0.125 C 0.09375 -0.101562 0.0976562 -0.0820312 0.109375 -0.0625 C 0.117188 -0.0507812 0.132812 -0.046875 0.15625 -0.046875 Z M 0.15625 -0.046875 "/></g></g></g><g fill="#000000" fill-opacity="1"><g transform="translate(1.509676, 0.739776)"><g/></g></g><g fill="#000000" fill-opacity="1"><g transform="translate(1.622506, 0.739776)"><g><path d="M 0.09375 0 C 0.0820312 0 0.0664062 0 0.046875 0 C 0.0351562 -0.0078125 0.0234375 -0.0195312 0.015625 -0.03125 C 0.015625 -0.0390625 0.015625 -0.0546875 0.015625 -0.078125 C 0.015625 -0.0859375 0.015625 -0.0976562 0.015625 -0.109375 C 0.0234375 -0.117188 0.0351562 -0.128906 0.046875 -0.140625 C 0.0664062 -0.148438 0.0859375 -0.15625 0.109375 -0.15625 C 0.128906 -0.15625 0.144531 -0.15625 0.15625 -0.15625 C 0.164062 -0.164062 0.171875 -0.171875 0.171875 -0.171875 C 0.171875 -0.171875 0.171875 -0.175781 0.171875 -0.1875 C 0.171875 -0.1875 0.164062 -0.1875 0.15625 -0.1875 C 0.15625 -0.195312 0.148438 -0.203125 0.140625 -0.203125 C 0.117188 -0.203125 0.101562 -0.195312 0.09375 -0.1875 C 0.0820312 -0.1875 0.0703125 -0.179688 0.0625 -0.171875 L 0.046875 -0.171875 L 0.015625 -0.21875 C 0.0351562 -0.226562 0.0546875 -0.238281 0.078125 -0.25 C 0.0976562 -0.257812 0.117188 -0.265625 0.140625 -0.265625 C 0.171875 -0.265625 0.191406 -0.253906 0.203125 -0.234375 C 0.222656 -0.222656 0.234375 -0.203125 0.234375 -0.171875 L 0.234375 -0.0625 C 0.234375 -0.0507812 0.238281 -0.046875 0.25 -0.046875 C 0.25 -0.046875 0.253906 -0.046875 0.265625 -0.046875 L 0.265625 0 C 0.265625 0 0.257812 0 0.25 0 C 0.238281 0 0.234375 0 0.234375 0 C 0.210938 0 0.195312 0 0.1875 0 C 0.175781 -0.0078125 0.171875 -0.0195312 0.171875 -0.03125 C 0.160156 -0.0078125 0.132812 0 0.09375 0 Z M 0.125 -0.046875 C 0.132812 -0.046875 0.144531 -0.0507812 0.15625 -0.0625 C 0.164062 -0.0703125 0.171875 -0.0820312 0.171875 -0.09375 L 0.171875 -0.125 C 0.160156 -0.125 0.148438 -0.125 0.140625 -0.125 C 0.140625 -0.125 0.132812 -0.117188 0.125 -0.109375 C 0.113281 -0.109375 0.101562 -0.101562 0.09375 -0.09375 C 0.0820312 -0.09375 0.078125 -0.0859375 0.078125 -0.078125 C 0.078125 -0.0664062 0.0820312 -0.0546875 0.09375 -0.046875 C 0.101562 -0.046875 0.113281 -0.046875 0.125 -0.046875 Z M 0.125 -0.046875 "/></g></g></g></g><g clip-path="url(#ea3c7ffcff)"><g fill="#000000" fill-opacity="1"><g transform="translate(0.291185, 1.36831)"><g><path d="M 0.03125 0 L 0.03125 -0.359375 L 0.109375 -0.359375 L 0.109375 -0.21875 C 0.117188 -0.226562 0.128906 -0.238281 0.140625 -0.25 C 0.148438 -0.257812 0.164062 -0.265625 0.1875 -0.265625 C 0.238281 -0.265625 0.265625 -0.234375 0.265625 -0.171875 L 0.265625 0 L 0.203125 0 L 0.203125 -0.15625 C 0.203125 -0.175781 0.195312 -0.1875 0.1875 -0.1875 C 0.175781 -0.195312 0.171875 -0.203125 0.171875 -0.203125 C 0.148438 -0.203125 0.132812 -0.195312 0.125 -0.1875 C 0.113281 -0.175781 0.109375 -0.160156 0.109375 -0.140625 L 0.109375 0 Z M 0.03125 0 "/></g></g></g><g fill="#000000" fill-opacity="1"><g transform="translate(0.592997, 1.36831)"><g><path d="M 0.25 -0.109375 L 0.09375 -0.109375 C 0.09375 -0.0859375 0.0976562 -0.0703125 0.109375 -0.0625 C 0.117188 -0.0507812 0.132812 -0.046875 0.15625 -0.046875 C 0.164062 -0.046875 0.175781 -0.046875 0.1875 -0.046875 C 0.195312 -0.0546875 0.203125 -0.0664062 0.203125 -0.078125 L 0.21875 -0.078125 L 0.265625 -0.046875 C 0.253906 -0.0351562 0.238281 -0.0234375 0.21875 -0.015625 C 0.195312 -0.00390625 0.175781 0 0.15625 0 C 0.125 0 0.0976562 0 0.078125 0 C 0.0546875 -0.0078125 0.0390625 -0.0234375 0.03125 -0.046875 C 0.0195312 -0.0664062 0.015625 -0.09375 0.015625 -0.125 C 0.015625 -0.15625 0.0195312 -0.179688 0.03125 -0.203125 C 0.0507812 -0.222656 0.0664062 -0.238281 0.078125 -0.25 C 0.0976562 -0.257812 0.125 -0.265625 0.15625 -0.265625 C 0.1875 -0.265625 0.210938 -0.253906 0.234375 -0.234375 C 0.253906 -0.210938 0.265625 -0.1875 0.265625 -0.15625 C 0.265625 -0.132812 0.265625 -0.125 0.265625 -0.125 Z M 0.203125 -0.15625 C 0.203125 -0.175781 0.195312 -0.1875 0.1875 -0.1875 C 0.175781 -0.195312 0.164062 -0.203125 0.15625 -0.203125 C 0.113281 -0.203125 0.09375 -0.1875 0.09375 -0.15625 Z M 0.203125 -0.15625 "/></g></g></g></g><g clip-path="url(#b43ad96758)"><g fill="#000000" fill-opacity="1"><g transform="translate(0.873085, 1.36831)"><g><path d="M 0.09375 0 C 0.0820312 0 0.0664062 0 0.046875 0 C 0.0351562 -0.0078125 0.0234375 -0.0195312 0.015625 -0.03125 C 0.015625 -0.0390625 0.015625 -0.0546875 0.015625 -0.078125 C 0.015625 -0.0859375 0.015625 -0.0976562 0.015625 -0.109375 C 0.0234375 -0.117188 0.0351562 -0.128906 0.046875 -0.140625 C 0.0664062 -0.148438 0.0859375 -0.15625 0.109375 -0.15625 C 0.128906 -0.15625 0.144531 -0.15625 0.15625 -0.15625 C 0.164062 -0.164062 0.171875 -0.171875 0.171875 -0.171875 C 0.171875 -0.171875 0.171875 -0.175781 0.171875 -0.1875 C 0.171875 -0.1875 0.164062 -0.1875 0.15625 -0.1875 C 0.15625 -0.195312 0.148438 -0.203125 0.140625 -0.203125 C 0.117188 -0.203125 0.101562 -0.195312 0.09375 -0.1875 C 0.0820312 -0.1875 0.0703125 -0.179688 0.0625 -0.171875 L 0.046875 -0.171875 L 0.015625 -0.21875 C 0.0351562 -0.226562 0.0546875 -0.238281 0.078125 -0.25 C 0.0976562 -0.257812 0.117188 -0.265625 0.140625 -0.265625 C 0.171875 -0.265625 0.191406 -0.253906 0.203125 -0.234375 C 0.222656 -0.222656 0.234375 -0.203125 0.234375 -0.171875 L 0.234375 -0.0625 C 0.234375 -0.0507812 0.238281 -0.046875 0.25 -0.046875 C 0.25 -0.046875 0.253906 -0.046875 0.265625 -0.046875 L 0.265625 0 C 0.265625 0 0.257812 0 0.25 0 C 0.238281 0 0.234375 0 0.234375 0 C 0.210938 0 0.195312 0 0.1875 0 C 0.175781 -0.0078125 0.171875 -0.0195312 0.171875 -0.03125 C 0.160156 -0.0078125 0.132812 0 0.09375 0 Z M 0.125 -0.046875 C 0.132812 -0.046875 0.144531 -0.0507812 0.15625 -0.0625 C 0.164062 -0.0703125 0.171875 -0.0820312 0.171875 -0.09375 L 0.171875 -0.125 C 0.160156 -0.125 0.148438 -0.125 0.140625 -0.125 C 0.140625 -0.125 0.132812 -0.117188 0.125 -0.109375 C 0.113281 -0.109375 0.101562 -0.101562 0.09375 -0.09375 C 0.0820312 -0.09375 0.078125 -0.0859375 0.078125 -0.078125 C 0.078125 -0.0664062 0.0820312 -0.0546875 0.09375 -0.046875 C 0.101562 -0.046875 0.113281 -0.046875 0.125 -0.046875 Z M 0.125 -0.046875 "/></g></g></g></g><g clip-path="url(#3bf9208db3)"><g fill="#000000" fill-opacity="1"><g transform="translate(1.144764, 1.36831)"><g><path d="M 0.125 0 C 0.101562 0 0.0820312 0 0.0625 0 C 0.0507812 -0.0078125 0.0390625 -0.0234375 0.03125 -0.046875 C 0.0195312 -0.0664062 0.015625 -0.09375 0.015625 -0.125 C 0.015625 -0.15625 0.0195312 -0.179688 0.03125 -0.203125 C 0.0390625 -0.222656 0.0507812 -0.238281 0.0625 -0.25 C 0.0820312 -0.257812 0.101562 -0.265625 0.125 -0.265625 C 0.144531 -0.265625 0.160156 -0.257812 0.171875 -0.25 C 0.179688 -0.25 0.191406 -0.242188 0.203125 -0.234375 L 0.203125 -0.359375 L 0.265625 -0.359375 L 0.265625 0 L 0.203125 0 L 0.203125 -0.03125 C 0.191406 -0.0195312 0.179688 -0.0078125 0.171875 0 C 0.160156 0 0.144531 0 0.125 0 Z M 0.15625 -0.046875 C 0.164062 -0.046875 0.175781 -0.0507812 0.1875 -0.0625 C 0.195312 -0.0820312 0.203125 -0.101562 0.203125 -0.125 C 0.203125 -0.15625 0.195312 -0.175781 0.1875 -0.1875 C 0.175781 -0.195312 0.164062 -0.203125 0.15625 -0.203125 C 0.132812 -0.203125 0.117188 -0.195312 0.109375 -0.1875 C 0.0976562 -0.175781 0.09375 -0.15625 0.09375 -0.125 C 0.09375 -0.101562 0.0976562 -0.0820312 0.109375 -0.0625 C 0.117188 -0.0507812 0.132812 -0.046875 0.15625 -0.046875 Z M 0.15625 -0.046875 "/></g></g></g><g fill="#000000" fill-opacity="1"><g transform="translate(1.453585, 1.36831)"><g><path d="M 0.0625 -0.296875 C 0.0507812 -0.296875 0.0390625 -0.296875 0.03125 -0.296875 C 0.03125 -0.304688 0.03125 -0.316406 0.03125 -0.328125 C 0.03125 -0.335938 0.03125 -0.34375 0.03125 -0.34375 C 0.0390625 -0.351562 0.0507812 -0.359375 0.0625 -0.359375 C 0.0703125 -0.359375 0.078125 -0.351562 0.078125 -0.34375 C 0.0859375 -0.34375 0.09375 -0.34375 0.09375 -0.34375 C 0.101562 -0.34375 0.109375 -0.335938 0.109375 -0.328125 C 0.109375 -0.316406 0.101562 -0.304688 0.09375 -0.296875 C 0.09375 -0.296875 0.0859375 -0.296875 0.078125 -0.296875 C 0.078125 -0.296875 0.0703125 -0.296875 0.0625 -0.296875 Z M 0.03125 0 L 0.03125 -0.25 L 0.109375 -0.25 L 0.109375 0 Z M 0.03125 0 "/></g></g></g><g fill="#000000" fill-opacity="1"><g transform="translate(1.592344, 1.36831)"><g><path d="M 0.03125 0 L 0.03125 -0.25 L 0.09375 -0.25 L 0.09375 -0.21875 L 0.109375 -0.21875 C 0.117188 -0.25 0.140625 -0.265625 0.171875 -0.265625 C 0.203125 -0.265625 0.222656 -0.253906 0.234375 -0.234375 C 0.253906 -0.222656 0.265625 -0.203125 0.265625 -0.171875 L 0.265625 0 L 0.203125 0 L 0.203125 -0.15625 C 0.203125 -0.175781 0.195312 -0.1875 0.1875 -0.1875 C 0.1875 -0.195312 0.179688 -0.203125 0.171875 -0.203125 C 0.148438 -0.203125 0.132812 -0.195312 0.125 -0.1875 C 0.113281 -0.175781 0.109375 -0.160156 0.109375 -0.140625 L 0.109375 0 Z M 0.03125 0 "/></g></g></g></g><g clip-path="url(#75778375fa)"><g fill="#000000" fill-opacity="1"><g transform="translate(1.894156, 1.36831)"><g><path d="M 0.140625 0.109375 C 0.0859375 0.109375 0.0507812 0.101562 0.03125 0.09375 C 0.0078125 0.0820312 0 0.0625 0 0.03125 C 0 0.0195312 0.00390625 0.0078125 0.015625 0 C 0.0234375 0 0.0390625 -0.00390625 0.0625 -0.015625 C 0.0507812 -0.015625 0.0390625 -0.0195312 0.03125 -0.03125 C 0.03125 -0.0390625 0.03125 -0.0507812 0.03125 -0.0625 C 0.03125 -0.0820312 0.046875 -0.09375 0.078125 -0.09375 L 0.078125 -0.109375 C 0.0546875 -0.117188 0.0390625 -0.128906 0.03125 -0.140625 C 0.03125 -0.148438 0.03125 -0.160156 0.03125 -0.171875 C 0.03125 -0.191406 0.0351562 -0.207031 0.046875 -0.21875 C 0.0546875 -0.226562 0.0664062 -0.238281 0.078125 -0.25 C 0.0976562 -0.257812 0.117188 -0.265625 0.140625 -0.265625 C 0.160156 -0.265625 0.175781 -0.257812 0.1875 -0.25 C 0.1875 -0.257812 0.191406 -0.273438 0.203125 -0.296875 L 0.25 -0.28125 C 0.25 -0.269531 0.242188 -0.257812 0.234375 -0.25 C 0.234375 -0.238281 0.226562 -0.234375 0.21875 -0.234375 L 0.21875 -0.21875 C 0.226562 -0.207031 0.234375 -0.191406 0.234375 -0.171875 C 0.234375 -0.160156 0.226562 -0.144531 0.21875 -0.125 C 0.207031 -0.113281 0.195312 -0.101562 0.1875 -0.09375 C 0.175781 -0.09375 0.160156 -0.09375 0.140625 -0.09375 L 0.125 -0.09375 C 0.113281 -0.09375 0.109375 -0.09375 0.109375 -0.09375 C 0.109375 -0.09375 0.101562 -0.0859375 0.09375 -0.078125 C 0.09375 -0.0664062 0.09375 -0.0546875 0.09375 -0.046875 C 0.101562 -0.046875 0.113281 -0.046875 0.125 -0.046875 L 0.171875 -0.046875 C 0.234375 -0.046875 0.265625 -0.0234375 0.265625 0.015625 C 0.265625 0.0351562 0.257812 0.0507812 0.25 0.0625 C 0.238281 0.0820312 0.222656 0.09375 0.203125 0.09375 C 0.179688 0.101562 0.160156 0.109375 0.140625 0.109375 Z M 0.140625 -0.140625 C 0.148438 -0.140625 0.15625 -0.140625 0.15625 -0.140625 C 0.164062 -0.148438 0.171875 -0.160156 0.171875 -0.171875 C 0.171875 -0.179688 0.164062 -0.191406 0.15625 -0.203125 C 0.15625 -0.210938 0.148438 -0.21875 0.140625 -0.21875 C 0.117188 -0.21875 0.101562 -0.210938 0.09375 -0.203125 C 0.09375 -0.191406 0.09375 -0.179688 0.09375 -0.171875 C 0.09375 -0.160156 0.09375 -0.148438 0.09375 -0.140625 C 0.101562 -0.140625 0.117188 -0.140625 0.140625 -0.140625 Z M 0.140625 0.0625 C 0.160156 0.0625 0.171875 0.0546875 0.171875 0.046875 C 0.179688 0.046875 0.1875 0.0390625 0.1875 0.03125 C 0.1875 0.0195312 0.179688 0.0078125 0.171875 0 L 0.109375 0 C 0.0976562 0 0.0859375 0 0.078125 0 C 0.078125 0.0078125 0.078125 0.0195312 0.078125 0.03125 C 0.078125 0.0390625 0.0820312 0.046875 0.09375 0.046875 C 0.101562 0.0546875 0.117188 0.0625 0.140625 0.0625 Z M 0.140625 0.0625 "/></g></g></g></g></g></g></svg>